<svg xmlns="http://www.w3.org/2000/svg" width="908" height="740" fill="none"><g clip-path="url(#a)"><path fill="#D7E6C6" d="M291.5 716.7c1.867 0 3.267-.233 4.2-.7l2.8-1.4c-5.133-3.733-7.7-8.867-7.7-15.4 0-5.6 1.867-11.433 5.6-17.5 3.267-5.6 6.767-10.033 10.5-13.3 4.2-3.733 8.867-7.933 14-12.6 4.667-4.667 8.867-11.433 12.6-20.3 2.8-5.6 4.2-11.667 4.2-18.2 0-6.533-1.4-12.833-4.2-18.9-2.8-5.6-6.767-10.033-11.9-13.3 3.267-3.267 7.933-6.067 14-8.4 5.6-2.333 11.667-3.5 18.2-3.5h6.3c6.533 0 12.6.7 18.2 2.1 7.933 2.8 16.1 5.133 24.5 7a211.84 211.84 0 0 0 23.8 4.2c.467 8.4 0 19.133-1.4 32.2-1.867 13.533-5.6 25.667-11.2 36.4-5.6 10.733-14 16.567-25.2 17.5v6.3c10.267.467 18.9-3.5 25.9-11.9 7-7.933 12.367-17.267 16.1-28 1.4 6.067 3.967 11.9 7.7 17.5 3.267 5.6 7.933 9.8 14 12.6.467 6.067 3.733 11.667 9.8 16.8 6.067 5.6 14 8.4 23.8 8.4 6.067 0 12.833-1.4 20.3-4.2 7.467-2.8 14-6.533 19.6-11.2 5.6-4.667 9.1-9.567 10.5-14.7v-2.1c0-4.2-.933-6.767-2.8-7.7-.933 3.267-2.567 5.367-4.9 6.3-2.8 1.4-5.6 2.1-8.4 2.1-6.067 0-11.2-1.633-15.4-4.9-3.267-1.867-7-3.967-11.2-6.3-4.2-2.333-9.8-3.5-16.8-3.5-5.133 0-10.033 1.4-14.7 4.2-4.667 2.8-7.7 6.767-9.1 11.9-6.533-3.267-11.2-9.8-14-19.6-2.8-9.333-3.967-17.033-3.5-23.1 1.4-6.533 2.333-12.833 2.8-18.9.467-5.6.7-10.5.7-14.7 25.2.933 48.3-3.033 69.3-11.9s37.8-22.867 50.4-42c12.6-18.667 18.9-42 18.9-70 0-14-1.633-28.933-4.9-44.8-3.733-16.333-9.567-33.6-17.5-51.8-10.733-24.733-25.2-49-43.4-72.8-18.667-23.8-38.033-45.733-58.1-65.8 9.333-3.733 18.9-7.7 28.7-11.9a1475.425 1475.425 0 0 0 27.3-14c8.4-2.8 16.8-4.667 25.2-5.6 12.6 0 22.167 2.567 28.7 7.7-3.733 2.8-6.533 6.533-8.4 11.2-1.867 4.2-2.8 8.867-2.8 14 0 7.933 1.633 14.467 4.9 19.6 4.2 7.467 8.867 13.067 14 16.8a477.41 477.41 0 0 1 12.6 9.1c3.733 2.333 7.467 6.3 11.2 11.9 3.267 5.133 4.9 10.267 4.9 15.4 0 4.2-1.633 7.933-4.9 11.2.933.933 2.567 1.4 4.9 1.4s5.133-.933 8.4-2.8c6.067-3.733 10.5-10.033 13.3-18.9 2.8-9.333 4.2-18.9 4.2-28.7 0-14-2.333-26.133-7-36.4-4.2-9.333-10.033-16.333-17.5-21-7.933-5.133-15.4-7.7-22.4-7.7-1.867 0-3.5.233-4.9.7-1.4 0-2.8.233-4.2.7-9.333-8.4-20.3-12.6-32.9-12.6h-2.1c12.133-8.4 21.467-15.867 28-22.4 10.733-11.667 18.667-23.1 23.8-34.3 4.667-11.667 7-22.633 7-32.9 0-19.133-7.467-35-22.4-47.6-14.933-12.6-34.533-18.9-58.8-18.9-15.4 0-32.2 3.033-50.4 9.1-18.667 5.6-38.033 15.167-58.1 28.7-1.4 0-3.733 1.633-7 4.9-2.333 1.867-5.6 2.8-9.8 2.8-5.133 0-10.033-1.633-14.7-4.9-5.133-3.267-9.333-6.533-12.6-9.8-7-6.533-15.633-12.367-25.9-17.5-10.267-5.6-19.6-8.4-28-8.4-12.133 0-21.467 3.5-28 10.5-6.533 6.533-10.267 14-11.2 22.4 2.8-4.2 7.933-6.3 15.4-6.3 7.467 0 14.467 2.567 21 7.7 6.533 4.667 12.367 9.333 17.5 14a274.113 274.113 0 0 0 18.9 13.3c6.067 3.733 14 5.6 23.8 5.6h5.6c1.4 0 3.267-.233 5.6-.7 4.667-.933 9.567-3.033 14.7-6.3 4.667-3.733 8.633-7.933 11.9-12.6l7.7-7.7c2.8-2.8 4.667-4.433 5.6-4.9a78.202 78.202 0 0 1 10.5-6.3 95.923 95.923 0 0 1 9.8-4.9c-1.4 1.4-2.333 2.567-2.8 3.5-8.867 9.8-13.3 20.767-13.3 32.9 0 7.933 2.1 14.7 6.3 20.3 4.2 5.133 9.333 7.7 15.4 7.7 4.2 0 8.633-1.633 13.3-4.9 3.267-2.333 4.9-4.667 4.9-7s-1.633-3.033-4.9-2.1c-3.733.933-7.467-.7-11.2-4.9-3.733-4.2-6.3-9.1-7.7-14.7a22.997 22.997 0 0 1-.7-5.6c-.467-2.333-.7-4.433-.7-6.3 0-3.733.467-7.467 1.4-11.2.933-3.733 2.567-7.233 4.9-10.5 24.267-11.2 46.2-16.8 65.8-16.8 20.067 0 36.167 5.133 48.3 15.4 11.667 10.267 17.5 23.567 17.5 39.9 0 9.8-2.333 20.067-7 30.8s-12.133 21.7-22.4 32.9c-9.8 10.267-22.867 20.533-39.2 30.8-16.333 10.267-35.467 20.067-57.4 29.4-36.867-34.533-78.4-62.3-124.6-83.3-46.2-21.467-93.567-32.2-142.1-32.2-36.4 0-63.467 6.3-81.2 18.9-18.2 12.6-27.3 27.533-27.3 44.8 0 14.933 7 30.1 21 45.5 13.533 15.4 34.3 28.233 62.3 38.5 15.867 6.067 32.9 10.5 51.1 13.3 17.733 2.333 35.933 3.5 54.6 3.5 35 0 69.767-3.967 104.3-11.9 4.2.467 7.933 1.633 11.2 3.5 3.267 1.4 5.833 3.267 7.7 5.6 5.133 4.2 7.7 9.567 7.7 16.1 0 2.8-.933 5.133-2.8 7-2.333 1.867-3.267 3.267-2.8 4.2.467.933 1.633 1.4 3.5 1.4 3.267 0 7.233-1.4 11.9-4.2 4.2-3.267 6.3-7.933 6.3-14s-2.567-11.2-7.7-15.4c-5.133-4.2-11.2-7-18.2-8.4a262.677 262.677 0 0 0 18.2-4.9c6.067-1.867 11.667-3.733 16.8-5.6 13.533 14.467 26.6 30.567 39.2 48.3 12.6 17.267 24.033 35.467 34.3 54.6 0 .467.233.933.7 1.4v1.4c1.867 5.133 3.5 10.733 4.9 16.8.933 5.6 1.4 11.2 1.4 16.8 0 9.8-1.633 18.9-4.9 27.3-3.733 8.4-8.4 14-14 16.8l-2.8 1.4c-2.8-4.2-6.533-7.233-11.2-9.1-5.133-2.333-10.267-3.5-15.4-3.5-6.067 0-10.967.933-14.7 2.8-6.533 2.333-11.667 5.133-15.4 8.4a111.652 111.652 0 0 0-10.5 10.5c-4.667-10.733-9.567-21-14.7-30.8-5.6-10.267-11.667-19.6-18.2-28-14.933-19.133-30.333-32.9-46.2-41.3-16.333-8.867-31.5-13.3-45.5-13.3-19.133 0-34.767 6.533-46.9 19.6-12.6 13.067-18.9 29.867-18.9 50.4 0 10.733 2.1 22.633 6.3 35.7 4.2 12.6 10.967 25.667 20.3 39.2 13.067 18.667 28.933 36.4 47.6 53.2 18.2 16.333 38.033 29.867 59.5 40.6l-.7.7c-14.467 1.4-26.367 7.467-35.7 18.2-.933-.467-2.1-.7-3.5-.7h-3.5c-8.867 0-17.733 3.267-26.6 9.8-8.867 7-15.4 16.567-19.6 28.7-2.8 7.467-4.2 17.033-4.2 28.7 0 13.067 2.333 26.133 7 39.2 4.2 13.067 10.5 21.933 18.9 26.6 3.733 1.867 6.767 2.8 9.1 2.8Zm-11.2-461.3c-44.333 0-84-6.067-119-18.2-23.333-7.933-41.3-18.433-53.9-31.5-12.6-13.533-18.9-26.6-18.9-39.2 0-12.133 6.767-22.867 20.3-32.2 13.067-9.8 33.833-14.7 62.3-14.7 18.2 0 38.5 3.733 60.9 11.2 21.933 7 44.1 16.333 66.5 28 22.4 11.667 43.167 24.267 62.3 37.8 19.133 13.067 34.767 25.667 46.9 37.8-18.2 7-38.267 12.367-60.2 16.1-21.933 3.267-44.333 4.9-67.2 4.9Zm144.9 316.4c-21.933-3.733-43.4-11.667-64.4-23.8a278.504 278.504 0 0 1-58.8-42.7c-18.2-16.8-33.133-34.3-44.8-52.5-7.467-11.2-12.833-21.933-16.1-32.2-3.267-10.733-4.9-20.533-4.9-29.4 0-16.333 4.667-29.633 14-39.9 8.867-10.267 20.767-15.4 35.7-15.4 11.667 0 24.5 3.967 38.5 11.9s27.767 21 41.3 39.2c13.533 18.667 24.5 38.033 32.9 58.1-6.067 4.667-12.6 7-19.6 7-6.067 0-10.5-2.1-13.3-6.3-1.4 1.4-2.1 3.267-2.1 5.6 0 8.867 5.133 15.867 15.4 21 9.8 4.667 20.533 7.933 32.2 9.8 4.2 14.467 7.467 29.4 9.8 44.8a725.925 725.925 0 0 1 4.2 44.8Zm12.6 1.4c-.467-13.067-1.867-27.3-4.2-42.7-2.333-15.867-5.833-31.733-10.5-47.6 8.867 0 16.1-.933 21.7-2.8 11.667-3.733 20.533-10.033 26.6-18.9 6.067-8.867 8.167-17.033 6.3-24.5 0-.933-.467-2.333-1.4-4.2h.7c4.667 0 9.8-3.967 15.4-11.9s9.1-16.1 10.5-24.5c.467-1.867.7-4.9.7-9.1v-7c0-2.333-.233-4.433-.7-6.3 1.867 3.733 3.733 7.7 5.6 11.9l4.2 11.2c7 16.8 12.133 32.667 15.4 47.6 2.8 14.467 4.2 27.767 4.2 39.9 0 30.8-8.867 53.667-26.6 68.6-17.733 15.4-40.367 22.167-67.9 20.3Z"/></g><defs><clipPath id="a"><path fill="#fff" d="M0 0h908v740H0z"/></clipPath></defs></svg>