<svg xmlns="http://www.w3.org/2000/svg" width="908" height="740" fill="none"><g clip-path="url(#a)"><path fill="#D7E6C6" d="M166 622.5c-1.867 0-3.967-.7-6.3-2.1-6.067-4.2-9.1-9.1-9.1-14.7 0-9.8 6.3-17.033 18.9-21.7 5.133-2.333 10.733-3.033 16.8-2.1-26.133-15.4-47.133-35.467-63-60.2-15.867-25.2-23.8-52.5-23.8-81.9 0-15.867 2.567-31.967 7.7-48.3 5.6-16.8 14.233-33.367 25.9-49.7l9.8-12.6c3.733-4.2 7.467-8.167 11.2-11.9h-.7c3.733-3.733 6.533-8.633 8.4-14.7 1.867-6.533 2.8-12.367 2.8-17.5 0-7.467-2.333-14.467-7-21-4.2-7-8.867-9.8-14-8.4-.467 0-.933.233-1.4.7h-.7c-2.333 0-3.5-.933-3.5-2.8 0-3.267 2.1-5.833 6.3-7.7 4.667-3.267 9.333-4.9 14-4.9 6.533 0 11.9 2.8 16.1 8.4 4.667 5.6 7 12.833 7 21.7 0 13.067-4.9 24.967-14.7 35.7 19.6-15.867 42-28.233 67.2-37.1 25.2-8.867 50.633-13.767 76.3-14.7l.7-.7c10.267-5.133 17.033-11.2 20.3-18.2-7-1.4-12.833-5.133-17.5-11.2-4.2-6.533-6.3-13.533-6.3-21 0-7.933 1.167-14.467 3.5-19.6 2.333-5.6 4.433-10.267 6.3-14 .933-2.333 1.867-4.9 2.8-7.7.933-3.267 1.4-6.533 1.4-9.8 0-4.2-.933-8.167-2.8-11.9-1.4-3.733-4.433-6.067-9.1-7 .467-.933 1.4-1.867 2.8-2.8 1.4-.933 3.733-1.4 7-1.4 7.933 0 15.4 3.733 22.4 11.2 7 7.467 12.833 16.333 17.5 26.6 4.667 9.8 7 18.667 7 26.6 0 11.2-3.033 20.767-9.1 28.7-5.6 7.933-11.9 12.367-18.9 13.3-2.8 7.467-7 13.533-12.6 18.2 24.733.467 48.533 4.667 71.4 12.6 22.867 7.467 42.933 19.133 60.2 35 12.6 11.2 22.167 24.267 28.7 39.2 6.067 5.133 11.9 8.167 17.5 9.1 3.733.933 6.767 1.4 9.1 1.4 3.733 0 7-.7 9.8-2.1 2.8-1.4 4.433-3.267 4.9-5.6 0-2.333.7-3.5 2.1-3.5 3.267 0 4.9 3.733 4.9 11.2 0 5.6-1.867 10.033-5.6 13.3-3.733 2.8-8.167 4.2-13.3 4.2-1.867 0-4.2-.233-7-.7-2.333-.467-4.667-1.4-7-2.8-1.4-.933-3.033-1.867-4.9-2.8-1.4-1.4-2.8-2.567-4.2-3.5 2.333 9.333 3.5 18.2 3.5 26.6 0 6.533-.7 13.067-2.1 19.6-1.4 6.533-3.967 12.833-7.7 18.9.933 7.933-.467 16.1-4.2 24.5-3.267 7.933-10.267 14.233-21 18.9a52.216 52.216 0 0 1-18.9 3.5c-7 0-14.233-.933-21.7-2.8-7.467-1.867-14.7-4.2-21.7-7-3.267-1.4-7.467-2.1-12.6-2.1-4.667 0-9.1.7-13.3 2.1-3.733 1.4-6.533 3.5-8.4 6.3-1.867 3.267-3.267 5.6-4.2 7-.467 1.4-1.4.7-2.8-2.1s-2.1-5.833-2.1-9.1c0-8.867 4.2-16.333 12.6-22.4 6.533-5.133 14.467-8.867 23.8-11.2 9.8-2.333 18.2-3.5 25.2-3.5 2.333 0 4.2.233 5.6.7 1.867 0 3.5.233 4.9.7.933 0 1.633.233 2.1.7h2.1c-3.267-3.267-4.9-7.233-4.9-11.9 0-6.067 2.1-10.733 6.3-14 1.867-.933 3.033-1.4 3.5-1.4.933 0 1.633.7 2.1 2.1.933.933.933 2.1 0 3.5-1.4 1.867-2.1 3.733-2.1 5.6 0 4.667 2.333 8.867 7 12.6 5.133 3.267 10.5 4.667 16.1 4.2 6.533-1.4 12.133-3.5 16.8-6.3 7-10.733 10.5-22.867 10.5-36.4 0-13.533-3.267-27.067-9.8-40.6-6.067-14-14.933-26.133-26.6-36.4-14.933-13.533-32.433-23.333-52.5-29.4-19.6-6.533-39.9-9.8-60.9-9.8-32.2 0-63.933 6.533-95.2 19.6-31.267 13.067-56.467 31.267-75.6 54.6 2.8-.933 5.367-1.633 7.7-2.1 2.8-.467 5.6-.7 8.4-.7 4.667 0 9.333.7 14 2.1l.7-.7c4.667-4.667 11.667-7 21-7 5.133 0 10.733 1.167 16.8 3.5 6.067 1.867 11.667 5.133 16.8 9.8 7 6.067 13.067 14.933 18.2 26.6 5.133 11.667 7.7 22.867 7.7 33.6 0 7-1.4 13.067-4.2 18.2-2.333 3.267-4.667 5.367-7 6.3-1.867.467-3.267.467-4.2 0 .933-2.8 1.4-4.9 1.4-6.3 0-6.067-3.033-11.2-9.1-15.4-6.067-4.667-11.667-7.467-16.8-8.4-4.667-.933-9.8-2.1-15.4-3.5-5.133-1.867-10.967-5.133-17.5-9.8-4.667-3.267-8.4-7.467-11.2-12.6-2.333-5.6-3.5-10.967-3.5-16.1 0-4.2.7-7.933 2.1-11.2a22.996 22.996 0 0 0-5.6-.7 22.996 22.996 0 0 0-5.6-.7c-7 0-14.933 2.333-23.8 7-9.333 14-16.333 28.467-21 43.4-4.2 14.467-6.3 29.167-6.3 44.1 0 25.667 6.067 49.7 18.2 72.1 12.6 22.4 29.867 40.833 51.8 55.3 21.933 14.467 47.133 22.867 75.6 25.2 3.733.467 7.467.7 11.2.7h11.9c39.667 0 75.133-7.233 106.4-21.7 31.267-14 58.8-32.2 82.6-54.6 24.267-22.867 45.267-46.9 63-72.1 18.2-25.2 33.833-49 46.9-71.4 13.533-22.867 24.967-41.3 34.3-55.3 18.667-27.533 37.8-54.133 57.4-79.8 20.067-26.133 40.833-49.467 62.3-70s43.867-36.167 67.2-46.9c-24.267-.933-49.933-3.5-77-7.7-26.6-4.2-49.7-6.3-69.3-6.3-31.733 0-57.167 4.9-76.3 14.7-19.133 9.333-33.133 21-42 35-8.4 14-12.6 28-12.6 42 0 19.6 5.6 34.3 16.8 44.1 11.2 9.333 23.8 14 37.8 14 13.533 0 26.367-3.967 38.5-11.9 12.133-8.4 20.3-19.367 24.5-32.9v-1.4c0-2.333.467-4.9 1.4-7.7.467-1.867.7-4.9.7-9.1v-5.6c0-1.867-.467-3.733-1.4-5.6-.933-4.667-2.567-8.633-4.9-11.9-1.867-3.267-3.733-5.6-5.6-7-3.267-2.8-7.933-4.2-14-4.2-4.667 0-8.167 1.4-10.5 4.2-.467 1.4-1.4 2.1-2.8 2.1-3.267 0-3.967-3.033-2.1-9.1 1.4-5.133 3.733-8.867 7-11.2 3.733-2.8 7.467-4.2 11.2-4.2 7 0 13.3 3.5 18.9 10.5 6.533 7.933 9.333 17.733 8.4 29.4.467 1.867.7 3.733.7 5.6.467 1.867.7 3.5.7 4.9 3.267-5.133 6.767-8.867 10.5-11.2 4.2-2.8 8.633-4.2 13.3-4.2 4.667 0 8.633 1.4 11.9 4.2 3.267 2.8 4.9 6.767 4.9 11.9 0 3.733-.933 6.3-2.8 7.7-1.4.933-2.333 0-2.8-2.8-.933-3.733-4.667-5.6-11.2-5.6-1.4 0-2.8.233-4.2.7-1.4 0-2.8.233-4.2.7-5.6 1.867-10.733 5.833-15.4 11.9-2.333 18.2-10.733 32.433-25.2 42.7-14.467 10.267-30.567 15.4-48.3 15.4-11.667 0-23.1-2.567-34.3-7.7-11.2-5.133-20.3-12.6-27.3-22.4v4.2c0 1.4-.233 2.8-.7 4.2-3.267 8.4-9.1 12.6-17.5 12.6-4.2 0-7.7-1.633-10.5-4.9-1.867-2.333-2.567-3.967-2.1-4.9.933-1.4 2.333-1.633 4.2-.7.467.467 1.4.7 2.8.7 4.2 0 8.4-2.8 12.6-8.4.933-1.867 1.867-4.433 2.8-7.7.933-3.267.933-6.767 0-10.5-1.4-4.2-2.567-8.633-3.5-13.3a85.956 85.956 0 0 1-1.4-15.4c0-10.733 2.567-21.7 7.7-32.9l-1.4.7c-7 3.267-13.533 4.2-19.6 2.8-1.867 4.2-5.367 7.933-10.5 11.2-4.667 2.8-10.5 4.2-17.5 4.2-5.133 0-11.667-1.633-19.6-4.9-7.467-3.267-14-7.467-19.6-12.6-5.6-5.133-8.4-10.5-8.4-16.1v-1.4c0-2.333.233-3.967.7-4.9l2.1-2.1c.933 3.267 2.8 5.6 5.6 7 2.8 1.4 5.833 2.1 9.1 2.1 4.2 0 8.167-.933 11.9-2.8 2.8-1.4 6.067-2.8 9.8-4.2 3.733-1.4 8.4-2.1 14-2.1 6.067 0 11.667 2.1 16.8 6.3 5.133 3.733 7.467 8.867 7 15.4h2.8c4.667 0 9.333-1.4 14-4.2 1.867-.933 3.5-1.867 4.9-2.8 1.867-1.4 3.5-2.567 4.9-3.5 9.333-13.533 23.333-24.967 42-34.3 19.133-9.333 43.867-14.467 74.2-15.4 9.8 0 23.567.933 41.3 2.8 17.733 1.4 36.633 3.267 56.7 5.6a7036.974 7036.974 0 0 0 57.4 6.3c18.2 1.4 32.433 2.1 42.7 2.1 11.2-2.8 22.633-4.2 34.3-4.2 9.8 0 14.7 1.633 14.7 4.9 0 3.267-4.9 4.9-14.7 4.9-15.867.467-31.967 6.067-48.3 16.8-15.867 10.733-31.733 24.5-47.6 41.3-15.4 16.333-30.1 33.833-44.1 52.5-13.533 18.2-25.667 35.933-36.4 53.2-10.733 16.8-19.367 30.567-25.9 41.3-8.867 14.467-20.767 33.6-35.7 57.4-14.933 23.333-33.367 48.067-55.3 74.2-21.467 26.133-46.433 50.867-74.9 74.2-28.467 22.867-60.433 41.533-95.9 56-35 14.933-73.967 22.4-116.9 22.4-4.667 0-9.333-.233-14-.7-4.2 0-8.867-.233-14-.7-13.067-.933-25.667-3.267-37.8-7-12.133-3.267-23.8-7.467-35-12.6-4.2 0-8.167.7-11.9 2.1-3.733 1.4-6.767 2.8-9.1 4.2-4.667 3.267-8.167 7-10.5 11.2-2.333 4.2-2.567 7.7-.7 10.5l1.4 2.8c0 1.4-.933 2.1-2.8 2.1Zm250.6-56.7c-9.333 0-17.967-3.033-25.9-9.1-7.467-5.6-11.2-12.133-11.2-19.6 0-6.533 2.1-11.2 6.3-14 4.667-2.8 9.1-4.2 13.3-4.2 2.8 0 4.667.7 5.6 2.1.933.933-.233 2.333-3.5 4.2s-4.9 5.367-4.9 10.5c0 4.667 1.4 9.1 4.2 13.3 1.867 2.8 4.9 5.833 9.1 9.1 4.667 3.267 10.267 4.9 16.8 4.9h1.4c.933 0-.233.467-3.5 1.4-2.8.933-5.367 1.4-7.7 1.4Z"/></g><defs><clipPath id="a"><path fill="#fff" d="M0 0h908v740H0z"/></clipPath></defs></svg>