<svg xmlns="http://www.w3.org/2000/svg" width="940" height="740" fill="none"><g clip-path="url(#a)"><path fill="#D7E6C6" d="M211.3 729.6c-7.467 0-15.167-4.667-23.1-14-7.933-8.867-12.833-17.267-14.7-25.2-.467-1.4-.7-2.8-.7-4.2v-3.5c0-6.533 1.4-12.367 4.2-17.5 3.267-5.133 7-8.167 11.2-9.1 1.4-7.467 5.367-14 11.9-19.6 2.333-1.867 5.367-3.5 9.1-4.9-14.467-1.867-27.767-7.7-39.9-17.5-11.667-9.333-17.5-21.933-17.5-37.8 0-5.133.7-10.033 2.1-14.7.467-2.333.7-4.9.7-7.7.467-2.8.7-5.367.7-7.7 0-8.4-1.633-15.167-4.9-20.3-2.8.933-5.133 1.4-7 1.4-5.133 0-10.033-1.867-14.7-5.6-4.2-3.733-7.233-8.167-9.1-13.3-1.867-5.133-2.8-10.033-2.8-14.7 0-2.8.233-5.367.7-7.7.467-2.333.7-4.433.7-6.3 0-5.133-1.167-10.5-3.5-16.1-2.333-5.6-6.767-7.933-13.3-7l2.1-4.2c1.4-1.867 4.9-2.8 10.5-2.8 8.4 0 17.5 3.967 27.3 11.9 9.8 7.467 16.333 15.167 19.6 23.1 1.4 2.8 2.333 5.6 2.8 8.4.467 2.8.7 5.367.7 7.7 0 10.267-3.033 17.733-9.1 22.4 4.2 7 6.3 14 6.3 21 6.067-7.933 13.767-14.233 23.1-18.9 9.8-4.667 19.133-7 28-7 5.133-6.067 11.433-9.1 18.9-9.1 8.4 0 15.167 3.967 20.3 11.9 3.733.933 6.767 1.4 9.1 1.4 3.267 0 6.067-.467 8.4-1.4 2.8-1.4 4.433-3.033 4.9-4.9.933-3.267 2.333-4.9 4.2-4.9 2.333 0 3.733.933 4.2 2.8.933 3.267.467 7.467-1.4 12.6-1.4 4.667-6.3 7.467-14.7 8.4-2.333 0-5.833-.933-10.5-2.8.467 1.867.7 3.733.7 5.6v5.6c0 1.4-.233 3.033-.7 4.9v7c0 4.2 1.167 7.7 3.5 10.5 2.8 3.267 5.6 3.967 8.4 2.1 1.867-.933 3.267-1.4 4.2-1.4 1.4 0 1.633 1.167.7 3.5-4.2 6.067-9.567 9.1-16.1 9.1-7.467 0-13.3-3.267-17.5-9.8-4.2-6.533-6.533-12.133-7-16.8-.933-8.867-3.5-15.167-7.7-18.9-4.2-4.2-8.167-6.533-11.9-7h-1.4c0-.467-.233-.7-.7-.7-8.867 1.867-17.733 6.3-26.6 13.3-8.867 7-14.467 15.167-16.8 24.5l-1.4 5.6v7c0 14.467 5.367 25.667 16.1 33.6 11.2 7.933 24.033 11.9 38.5 11.9 20.533 0 42.467-7.467 65.8-22.4 23.333-14.467 46.9-33.6 70.7-57.4 24.267-24.267 48.067-51.1 71.4-80.5 23.333-29.4 45.5-59.033 66.5-88.9 21-29.867 39.9-57.4 56.7-82.6 7.933-12.133 17.267-24.967 28-38.5 10.733-14 22.167-28 34.3-42-24.733-8.4-49.933-16.1-75.6-23.1-25.667-7.467-51.333-13.067-77-16.8.467 18.2-2.333 36.633-8.4 55.3-5.6 18.2-13.767 35.933-24.5 53.2 5.133-2.8 10.033-5.133 14.7-7 5.133-2.333 10.733-3.5 16.8-3.5 1.4-6.067 4.667-10.267 9.8-12.6 5.133-2.333 10.5-3.5 16.1-3.5 6.533 0 12.133 1.167 16.8 3.5 4.2 1.867 10.267 5.6 18.2 11.2s12.367 12.6 13.3 21c-1.4-.933-4.2-2.1-8.4-3.5-4.2-1.867-9.1-2.8-14.7-2.8-7.467 0-15.167 2.567-23.1 7.7-2.333 1.867-5.367 2.8-9.1 2.8-4.667 0-8.867-1.867-12.6-5.6-3.267-4.2-5.367-8.167-6.3-11.9-12.133.933-24.267 6.3-36.4 16.1-1.867.933-3.033 1.4-3.5 1.4-18.667 28.467-41.3 53.9-67.9 76.3-26.6 22.4-52.5 38.733-77.7 49-14.467 6.067-28.233 10.5-41.3 13.3-13.067 2.333-25.2 3.5-36.4 3.5-31.267 0-55.3-8.867-72.1-26.6-16.8-17.733-25.2-39.433-25.2-65.1 0-20.067 5.367-41.067 16.1-63 11.2-22.4 28.467-43.633 51.8-63.7 21-17.733 44.567-32.2 70.7-43.4 26.133-11.667 52.733-20.067 79.8-25.2 27.533-5.6 53.2-7.467 77-5.6 18.2.933 35.933 3.033 53.2 6.3-2.8-15.4-8.867-30.567-18.2-45.5-13.533-20.067-33.133-35-58.8-44.8-6.533-.467-11.9 1.167-16.1 4.9-4.2 3.733-7 7.233-8.4 10.5-2.333 4.667-3.5 9.1-3.5 13.3 0 5.6 1.867 9.1 5.6 10.5 2.333.467 3.5 1.4 3.5 2.8 0 1.867-2.333 2.8-7 2.8-3.733 0-7.933-1.167-12.6-3.5-4.667-2.8-7-7.233-7-13.3 0-7.933 3.733-14.933 11.2-21 7.933-6.067 16.567-9.333 25.9-9.8h.7c-22.867-7.467-50.4-10.267-82.6-8.4l-11.2 1.4a73.455 73.455 0 0 0-9.8 2.1l-4.9.7c-.933 0-1.867.233-2.8.7l-2.8 1.4c-4.667 1.4-9.567 4.2-14.7 8.4-4.2 4.2-6.3 9.8-6.3 16.8 0 7.933 3.267 12.6 9.8 14 2.333.467 3.5 1.633 3.5 3.5 0 1.4-1.167 2.333-3.5 2.8-.933.467-2.333.7-4.2.7-4.2 0-7.7-1.4-10.5-4.2-1.867-1.867-3.267-3.733-4.2-5.6-.933-2.333-1.633-4.433-2.1-6.3l-2.1 3.5c-2.333 3.733-6.533 8.867-12.6 15.4-6.067 6.067-13.067 11.433-21 16.1-7.933 4.667-15.867 7-23.8 7-10.267 0-17.733-4.433-22.4-13.3-.467-.467-.7-1.167-.7-2.1s.7-1.4 2.1-1.4c1.4 0 2.8.233 4.2.7h4.9c5.133 0 10.033-2.333 14.7-7 5.133-4.667 8.633-9.567 10.5-14.7 3.733-10.733 8.633-21 14.7-30.8 6.067-10.267 12.833-17.267 20.3-21 6.533-3.267 13.067-4.9 19.6-4.9 10.733 0 19.6 3.5 26.6 10.5 4.2-1.4 8.633-2.333 13.3-2.8a144.795 144.795 0 0 1 14-2.1c3.733-.467 7.233-.7 10.5-.7h9.8c31.733 0 59.033 5.133 81.9 15.4 22.867 9.8 40.6 23.567 53.2 41.3 7 8.867 12.367 18.2 16.1 28 4.2 9.8 7.233 19.833 9.1 30.1 27.533 5.6 54.833 12.833 81.9 21.7a2416.259 2416.259 0 0 1 81.9 28c10.733-11.667 21.7-22.633 32.9-32.9 11.667-10.733 23.333-20.533 35-29.4 13.067-9.8 26.133-16.567 39.2-20.3 13.067-3.733 24.967-5.6 35.7-5.6 12.133 0 21.933 1.633 29.4 4.9 7.933 3.267 12.6 7 14 11.2l-3.5 2.1c-3.267-3.733-7.933-6.767-14-9.1-5.6-2.333-12.367-3.5-20.3-3.5-9.333 0-20.3 2.333-32.9 7-12.6 4.2-26.367 11.9-41.3 23.1-7.933 6.067-16.567 14.233-25.9 24.5-9.333 10.267-19.133 22.167-29.4 35.7a2966.888 2966.888 0 0 1 62.3 23.8 3198.171 3198.171 0 0 0 59.5 21c18.2 6.067 34.3 10.5 48.3 13.3 14.467 2.333 26.833 3.5 37.1 3.5 19.133 0 33.833-2.8 44.1-8.4 10.267-6.067 17.5-12.6 21.7-19.6 4.667-7.467 7.7-13.3 9.1-17.5l9.8 2.8c-1.4 6.067-4.9 13.3-10.5 21.7-5.133 7.933-13.533 15.167-25.2 21.7-11.667 6.067-27.767 9.1-48.3 9.1-11.667 0-24.733-1.167-39.2-3.5-14.467-2.8-31.033-7.233-49.7-13.3-20.067-6.533-40.6-13.767-61.6-21.7s-42.467-15.633-64.4-23.1c-15.4 21.467-31.033 44.8-46.9 70-15.867 24.733-30.8 48.767-44.8 72.1-14 22.867-26.367 42.7-37.1 59.5-25.667 41.067-53.667 77.933-84 110.6-29.867 32.667-61.367 58.1-94.5 76.3-33.133 18.667-67.667 27.767-103.6 27.3-3.267.467-6.767 1.4-10.5 2.8a36.81 36.81 0 0 0-9.1 5.6c-6.533 5.133-10.5 10.267-11.9 15.4 5.133 0 9.8 2.1 14 6.3 4.667 4.2 7 8.867 7 14v4.2c0 4.667-.467 8.4-1.4 11.2-.467 3.267-1.167 6.3-2.1 9.1s-1.4 5.6-1.4 8.4c0 3.733.7 7.233 2.1 10.5 1.867 3.267 4.667 5.133 8.4 5.6l-2.1 2.1c-.933 1.4-3.033 2.1-6.3 2.1Zm-6.3-308c8.867 0 18.433-1.167 28.7-3.5s21.233-5.833 32.9-10.5a219.77 219.77 0 0 1 9.1-2.8c3.267-.933 6.067-2.567 8.4-4.9l.7-.7c7.933-5.133 16.1-12.6 24.5-22.4 8.4-10.267 13.533-19.833 15.4-28.7-7.933.467-15.167-2.1-21.7-7.7-6.067-6.067-9.8-12.833-11.2-20.3-.467-2.8-.933-5.367-1.4-7.7v-7c0-4.2.233-7.933.7-11.2l2.8-9.8c.467-1.4.7-4.2.7-8.4 0-6.067-1.4-11.9-4.2-17.5-2.8-6.067-7.467-9.1-14-9.1.467-.933 1.633-2.333 3.5-4.2 1.867-2.333 5.367-3.5 10.5-3.5 7.467 0 15.167 2.8 23.1 8.4 8.4 5.6 15.867 12.6 22.4 21 6.533 7.933 10.967 15.867 13.3 23.8 1.4 5.6 2.1 10.967 2.1 16.1 0 8.4-1.867 15.867-5.6 22.4-3.733 6.533-8.4 10.967-14 13.3h-.7c.467 4.667-1.167 10.5-4.9 17.5-3.733 6.533-7.933 12.6-12.6 18.2 23.333-15.867 45.5-35.233 66.5-58.1 21-23.333 38.033-48.3 51.1-74.9 13.533-27.067 19.833-54.133 18.9-81.2-9.8-.933-19.6-1.633-29.4-2.1-9.333-.933-18.9-1.4-28.7-1.4-21.933.467-45.5 3.733-70.7 9.8-24.733 6.067-49 15.167-72.8 27.3-23.333 11.667-43.867 26.133-61.6 43.4-16.8 16.333-29.4 34.067-37.8 53.2-8.4 18.667-12.6 36.4-12.6 53.2 0 19.6 5.6 36.167 16.8 49.7 11.667 13.533 28.933 20.3 51.8 20.3Z"/></g><defs><clipPath id="a"><path fill="#fff" d="M0 0h940v740H0z"/></clipPath></defs></svg>