<svg xmlns="http://www.w3.org/2000/svg" width="591" height="701" fill="none"><path fill="#D7E6C6" d="M488.7 700.4c-24.267 0-45.5-8.4-63.7-25.2-17.733-16.8-31.033-40.133-39.9-70-7-24.733-10.5-53.2-10.5-85.4v-18.2c.467-6.533.933-12.833 1.4-18.9a12218.714 12218.714 0 0 1-30.1 28.7c-9.333 8.4-17.733 15.633-25.2 21.7-17.733 14-34.3 24.033-49.7 30.1-15.4 6.533-29.167 9.8-41.3 9.8-17.733 0-31.733-5.6-42-16.8-9.8-11.2-14.7-26.133-14.7-44.8 0-11.667 2.1-24.033 6.3-37.1-6.533 6.533-13.533 11.9-21 16.1-.467 7.467-4.433 13.3-11.9 17.5-7.467 4.2-14.7 6.3-21.7 6.3-6.067 0-13.3-1.633-21.7-4.9-8.4-3.267-15.867-7.467-22.4-12.6-6.067-5.6-9.1-11.433-9.1-17.5v-2.1c0-4.2 1.167-6.767 3.5-7.7.933 3.267 2.8 5.6 5.6 7 2.8 1.4 5.833 2.1 9.1 2.1 6.067 0 10.967-1.167 14.7-3.5 3.267-1.867 7-3.733 11.2-5.6 4.2-1.867 9.567-2.8 16.1-2.8 6.067 0 11.667 1.867 16.8 5.6 5.133 3.267 8.167 7.7 9.1 13.3 3.733-2.333 8.167-5.833 13.3-10.5 5.6-4.667 10.267-10.033 14-16.1 3.733-7.933 7.933-16.1 12.6-24.5 4.667-8.4 10.267-16.8 16.8-25.2 5.133-6.533 14.233-17.5 27.3-32.9 13.067-15.4 27.533-33.367 43.4-53.9 15.867-20.533 31.267-42 46.2-64.4 15.4-22.4 28-44.1 37.8-65.1 9.8-21 14.7-39.667 14.7-56 0-14.467-5.133-26.133-15.4-35-9.8-8.867-26.6-13.533-50.4-14-5.6 0-11.433.233-17.5.7-5.6.467-11.433 1.167-17.5 2.1 2.333 6.533 3.733 13.533 4.2 21 .933 7 1.4 14.467 1.4 22.4 0 18.2-2.567 38.033-7.7 59.5 5.6-5.6 11.433-8.4 17.5-8.4 2.8 0 5.6.7 8.4 2.1 3.267 1.4 5.367 3.5 6.3 6.3 1.4 2.8 2.1 5.6 2.1 8.4 0 3.267-.7 5.6-2.1 7-.933.933-2.1-.233-3.5-3.5-1.4-3.733-5.367-5.6-11.9-5.6-4.2 0-8.633 1.167-13.3 3.5-4.667 2.333-7.7 5.833-9.1 10.5v.7c-6.067 20.067-14.233 39.667-24.5 58.8-10.267 18.667-21.467 35.467-33.6 50.4-15.867 20.067-31.967 34.533-48.3 43.4-16.333 8.867-31.733 13.3-46.2 13.3-5.6 0-10.967-.7-16.1-2.1 7.933 7.933 11.9 16.333 11.9 25.2 0 5.133-1.867 10.033-5.6 14.7-3.267 3.267-7.233 4.9-11.9 4.9-5.133 0-9.567-1.4-13.3-4.2-3.267-3.267-2.1-4.9 3.5-4.9 3.267 0 6.067-1.867 8.4-5.6 2.333-4.2 3.5-8.633 3.5-13.3 0-2.333-.467-5.6-1.4-9.8-.933-4.2-3.033-7.933-6.3-11.2-12.6-5.6-22.633-14.7-30.1-27.3-7.467-13.067-11.2-28.467-11.2-46.2 0-7.467.7-15.4 2.1-23.8-4.2 5.133-8.4 9.567-12.6 13.3-7 4.2-13.767 6.3-20.3 6.3-6.067 0-11.433-1.867-16.1-5.6-4.2-3.733-6.3-9.333-6.3-16.8 0-5.133 1.167-8.4 3.5-9.8 2.8-1.867 4.433-1.167 4.9 2.1 2.333 7 8.4 10.5 18.2 10.5 1.867 0 3.733-.233 5.6-.7 1.867-.933 3.733-1.633 5.6-2.1 3.733-1.867 8.167-5.367 13.3-10.5 5.6-5.133 10.267-10.733 14-16.8 4.667-10.733 10.5-21.467 17.5-32.2 7.467-11.2 16.333-22.633 26.6-34.3 17.733-19.133 39.2-37.1 64.4-53.9 25.2-16.8 51.567-29.4 79.1-37.8-6.067-13.067-14.233-24.5-24.5-34.3-9.8-9.8-22.167-17.033-37.1-21.7-9.8-3.267-20.067-4.9-30.8-4.9-11.667 0-22.867 2.333-33.6 7-10.267 4.2-19.367 10.733-27.3 19.6-4.667 6.067-8.167 14.233-10.5 24.5 0 5.6 1.867 10.733 5.6 15.4 3.733 4.667 7.7 7 11.9 7 2.333 0 4.433-.7 6.3-2.1.467-.467 1.167-.7 2.1-.7 3.733 0 4.433 2.1 2.1 6.3-3.267 4.2-7.7 6.3-13.3 6.3h-2.1c-3.733 0-7.467-1.4-11.2-4.2.933 1.867 1.4 3.267 1.4 4.2.933 1.4 1.4 3.267 1.4 5.6v7c0 7-1.167 15.167-3.5 24.5-1.867 8.867-4.9 16.567-9.1 23.1-6.067 8.4-13.767 12.6-23.1 12.6H54l-4.2-1.4c-1.867-.933-2.8-1.633-2.8-2.1 0-.933 2.567-2.567 7.7-4.9 5.133-3.733 7.7-10.5 7.7-20.3 0-6.067-.933-10.967-2.8-14.7a134.218 134.218 0 0 1-7.7-23.1c-1.867-7.933-2.8-15.4-2.8-22.4 0-6.067.7-11.433 2.1-16.1 3.733-10.267 9.333-17.267 16.8-21 7.467-4.2 14.933-6.067 22.4-5.6a50.366 50.366 0 0 1 6.3-7.7 85.266 85.266 0 0 1 7-6.3c-4.2 1.4-8.633 2.1-13.3 2.1-8.867 0-16.1-2.1-21.7-6.3-5.133-4.667-7.7-9.8-7.7-15.4s2.567-10.5 7.7-14.7c2.8-2.333 5.133-3.267 7-2.8 2.333.467 2.8 1.867 1.4 4.2-1.867 3.267-1.4 7 1.4 11.2 2.8 3.733 6.533 7 11.2 9.8 2.8 1.4 6.533 2.8 11.2 4.2 5.133.933 10.033.933 14.7 0 16.8-9.8 35.933-14.7 57.4-14.7 8.4 0 16.333.7 23.8 2.1 21.933 4.2 39.667 11.9 53.2 23.1 13.533 11.2 23.333 24.733 29.4 40.6a279.145 279.145 0 0 1 19.6-2.1c6.533-.933 13.067-1.4 19.6-1.4 34.533.467 59.967 8.633 76.3 24.5 16.8 15.867 25.2 35.467 25.2 58.8 0 21.467-6.767 45.033-20.3 70.7-10.267 18.667-23.567 38.267-39.9 58.8a1010.371 1010.371 0 0 1-51.1 58.1c-17.267 18.667-32.9 35.233-46.9 49.7-13.533 14-22.867 24.033-28 30.1-14.467 17.267-25.2 34.067-32.2 50.4-7 15.867-10.5 29.867-10.5 42 0 13.067 3.5 23.333 10.5 30.8 7 7.467 16.8 11.2 29.4 11.2 10.733 0 23.1-3.033 37.1-9.1s29.4-15.633 46.2-28.7c9.333-7.467 19.133-16.1 29.4-25.9 10.733-9.8 21.933-20.533 33.6-32.2 5.133-42.933 17.267-87.733 36.4-134.4S460 242.133 495 200.6c15.4-18.2 30.1-31.967 44.1-41.3 14-9.8 25.433-14.7 34.3-14.7 11.2 0 16.8 7.233 16.8 21.7 0 6.067-1.4 14-4.2 23.8-2.333 9.333-6.3 20.067-11.9 32.2-9.8 21.933-23.567 45.967-41.3 72.1-17.267 25.667-36.4 51.333-57.4 77-20.533 25.667-41.3 49.7-62.3 72.1-4.2 24.267-6.3 48.067-6.3 71.4 0 32.667 3.967 61.833 11.9 87.5s19.133 45.733 33.6 60.2c14.933 14.933 32.2 22.4 51.8 22.4 9.333 0 19.133-1.867 29.4-5.6 10.733-3.733 21.7-9.567 32.9-17.5l5.6 7.7c-14.467 10.267-28.933 17.967-43.4 23.1-14 5.133-27.3 7.7-39.9 7.7ZM191.9 90.7c-6.067 0-10.967-2.567-14.7-7.7-3.267-5.133-4.9-10.967-4.9-17.5 0-9.8 3.267-18.667 9.8-26.6 1.867-2.333 3.967-4.2 6.3-5.6 2.333-1.4 2.567-1.167.7.7-2.333 2.333-3.967 5.133-4.9 8.4-.933 2.8-1.4 5.6-1.4 8.4 0 5.133.7 9.1 2.1 11.9 1.867 4.667 4.667 8.633 8.4 11.9 4.2 3.267 7.933 3.967 11.2 2.1 4.2-1.867 6.067-1.4 5.6 1.4-.467 2.333-2.567 5.133-6.3 8.4-3.267 2.8-7.233 4.2-11.9 4.2Zm-70.7 280c10.733 0 22.633-3.267 35.7-9.8 13.067-6.533 26.133-16.8 39.2-30.8v-.7l.7-.7c2.8-3.733 5.833-10.267 9.1-19.6 3.733-9.8 5.6-18.9 5.6-27.3 0-5.6-1.167-10.267-3.5-14-4.667 4.667-10.733 7-18.2 7-7 0-13.533-1.867-19.6-5.6-5.6-4.2-9.8-8.4-12.6-12.6-2.333-4.667-4.433-8.633-6.3-11.9-1.867-3.733-4.9-7.233-9.1-10.5-4.2-3.733-8.633-5.6-13.3-5.6-3.733 0-6.767 1.167-9.1 3.5 0-.467-.233-.933-.7-1.4v-2.1c0-2.333 1.167-4.9 3.5-7.7 3.267-3.733 7.7-6.3 13.3-7.7 6.067-1.867 12.133-2.8 18.2-2.8 15.867 0 28.7 3.033 38.5 9.1 7 4.2 12.133 9.333 15.4 15.4 3.733 6.067 5.6 11.9 5.6 17.5 0 4.2-.7 7.7-2.1 10.5 4.2 6.067 6.3 13.767 6.3 23.1 0 6.533-1.167 14-3.5 22.4 14.933-20.533 27.067-44.8 36.4-72.8 9.8-28.467 14.7-56.467 14.7-84 0-19.6-2.8-37.8-8.4-54.6-27.067 7.933-53.2 20.3-78.4 37.1-24.733 16.333-45.5 34.533-62.3 54.6-17.733 21-30.567 41.3-38.5 60.9s-11.9 37.567-11.9 53.9c0 20.067 5.133 36.4 15.4 49 10.267 12.133 23.567 18.2 39.9 18.2Zm295.4 54.6c21-23.333 41.533-47.6 61.6-72.8 20.067-25.667 37.8-50.167 53.2-73.5 15.4-23.8 26.833-44.567 34.3-62.3 10.267-24.733 15.4-41.067 15.4-49 0-5.133-1.867-7.7-5.6-7.7-4.667 0-11.9 4.2-21.7 12.6-9.333 8.4-18.667 18.2-28 29.4-29.867 35.467-53.667 72.567-71.4 111.3-17.267 38.267-29.867 75.6-37.8 112Z"/></svg>