<svg xmlns="http://www.w3.org/2000/svg" width="603" height="577" fill="none"><path fill="#D7E6C6" d="M239 576.9c-28.467 0-51.8-5.833-70-17.5-17.733-11.667-30.8-27.067-39.2-46.2-7.933-19.6-11.9-40.6-11.9-63a89.942 89.942 0 0 1-12.6-14c-3.733-5.133-7.467-10.733-11.2-16.8-.467 7-1.867 14-4.2 21-1.867 6.533-4.433 12.133-7.7 16.8 9.333 7 14 17.967 14 32.9 0 7.933-2.1 16.567-6.3 25.9-3.267 7.467-8.867 15.167-16.8 23.1-7.933 8.4-16.8 15.167-26.6 20.3-9.333 5.6-18.2 8.4-26.6 8.4-1.4 0-2.8-.233-4.2-.7-1.4 0-2.8-.233-4.2-.7-4.667-1.4-7.7-3.267-9.1-5.6-1.4-1.867-2.1-3.267-2.1-4.2 8.867.933 15.167-2.8 18.9-11.2 4.2-7.933 6.3-15.4 6.3-22.4 0-3.267-.233-6.533-.7-9.8-.467-3.733-.7-7.7-.7-11.9 0-3.267.233-6.767.7-10.5.467-3.733 1.633-7.933 3.5-12.6 2.8-7.467 7.7-13.767 14.7-18.9 7-5.6 14.467-8.4 22.4-8.4 3.733 0 7.233.7 10.5 2.1 2.8-3.733 5.133-9.333 7-16.8 2.333-7.933 3.5-15.867 3.5-23.8 0-2.333-.233-4.433-.7-6.3 0-2.333-.233-4.433-.7-6.3-9.333-24.267-13.767-50.4-13.3-78.4-7.467 13.067-17.967 19.6-31.5 19.6-4.667 0-8.867-1.4-12.6-4.2-3.733-3.267-5.6-7.7-5.6-13.3 0-5.133 1.167-9.1 3.5-11.9 2.8-3.267 4.433-2.333 4.9 2.8.467 3.733 2.8 6.533 7 8.4 4.667 1.867 9.567 2.567 14.7 2.1 2.8-.467 6.067-1.4 9.8-2.8 4.2-1.867 7.467-4.667 9.8-8.4 1.867-33.133 10.033-67.2 24.5-102.2 14.933-35 36.867-66.967 65.8-95.9 15.867-15.867 33.133-29.633 51.8-41.3-7 0-14-.467-21-1.4-6.533-1.4-12.133-3.267-16.8-5.6-3.267 5.133-8.4 9.567-15.4 13.3-7 3.267-15.167 4.9-24.5 4.9-5.133 0-10.967-.7-17.5-2.1-8.4-2.8-17.5-7.7-27.3-14.7-9.333-7.467-17.267-15.867-23.8-25.2-6.533-9.333-9.8-18.2-9.8-26.6 0-6.533 1.167-10.733 3.5-12.6C63.533 1.967 65.167.567 66.1.1c0 7.467 3.267 12.833 9.8 16.1 7 3.267 13.767 4.9 20.3 4.9 2.8 0 6.067-.467 9.8-1.4a464.98 464.98 0 0 1 11.9-2.8c4.2-.933 9.1-1.4 14.7-1.4 2.333 0 4.667.233 7 .7 2.333 0 4.9.233 7.7.7 8.4 1.867 15.867 6.3 22.4 13.3 6.533 6.533 9.8 14 9.8 22.4 0 3.267-.233 5.833-.7 7.7 7.467 3.267 17.033 4.9 28.7 4.9 5.133 0 10.033-.233 14.7-.7 5.133-.933 10.033-2.333 14.7-4.2 23.8-12.6 48.767-22.4 74.9-29.4 26.6-7 53.2-10.5 79.8-10.5 27.533 0 54.367 3.967 80.5 11.9 26.133 7.933 50.167 20.3 72.1 37.1 19.133 14 33.6 32.433 43.4 55.3 9.8 22.867 14.7 48.533 14.7 77 0 22.867-3.5 47.367-10.5 73.5-6.533 25.667-17.033 52.267-31.5 79.8-15.4 29.4-35 57.4-58.8 84-23.333 26.6-49.467 50.4-78.4 71.4-28.467 20.533-58.567 36.633-90.3 48.3-31.267 12.133-62.533 18.2-93.8 18.2Zm9.1-14.7c23.333 0 47.833-5.833 73.5-17.5 26.133-11.667 52.033-27.3 77.7-46.9 25.667-20.067 49.7-42.7 72.1-67.9 22.867-25.667 42.233-52.5 58.1-80.5 17.267-29.4 29.867-57.867 37.8-85.4 7.933-27.533 11.9-52.967 11.9-76.3 0-48.533-14.467-84.7-43.4-108.5-17.267-14.467-36.633-24.967-58.1-31.5-21-6.533-43.167-9.8-66.5-9.8-26.6 0-53.667 3.967-81.2 11.9s-53.9 19.133-79.1 33.6c-24.733 14-46.9 30.8-66.5 50.4-7.933 7.933-15.167 15.867-21.7 23.8-1.4 4.667-2.1 9.333-2.1 14 0 3.267.233 6.3.7 9.1.933 2.8 1.633 5.367 2.1 7.7 2.333 6.067 5.6 11.2 9.8 15.4 4.667 4.2 9.1 5.367 13.3 3.5.933-.467 1.867-.7 2.8-.7 1.4 0 2.1.933 2.1 2.8 0 2.333-1.4 4.9-4.2 7.7-5.133 5.133-10.5 7.7-16.1 7.7-6.067 0-11.433-2.567-16.1-7.7-4.667-5.6-7.467-12.367-8.4-20.3V184.2c.467-2.8.933-5.367 1.4-7.7-17.733 25.667-31.033 52.267-39.9 79.8-8.4 27.067-12.6 53.2-12.6 78.4 0 35.933 8.167 66.267 24.5 91a187.344 187.344 0 0 1 7.7-35.7c3.733-12.133 8.167-23.8 13.3-35 14-28.933 33.367-58.8 58.1-89.6 25.2-30.8 54.133-58.333 86.8-82.6-1.4.467-2.8.7-4.2.7h-4.2c-6.067 0-11.667-1.167-16.8-3.5-4.667-2.8-7.933-6.767-9.8-11.9-.467-.933-.7-2.333-.7-4.2 0-5.133 1.867-9.333 5.6-12.6 4.2-3.733 7.233-5.6 9.1-5.6 2.333 0 2.567 1.867.7 5.6-1.867 3.267-1.4 7 1.4 11.2 2.8 3.733 6.533 6.767 11.2 9.1 3.733 1.867 8.167 2.8 13.3 2.8h3.5c1.4 0 2.567-.233 3.5-.7 25.667-17.733 52.733-31.733 81.2-42 28.933-10.733 58.333-16.1 88.2-16.1 9.8 0 19.6.7 29.4 2.1 10.267.933 20.3 2.8 30.1 5.6L526 131a46.041 46.041 0 0 0-11.2-1.4h-11.2c-24.267 0-49.233 5.133-74.9 15.4-25.2 10.267-49.933 24.267-74.2 42-5.133 5.6-9.8 12.6-14 21-4.2 8.4-6.533 15.867-7 22.4 1.4-.467 3.5-.7 6.3-.7 9.8 0 17.5 4.667 23.1 14 3.267 5.6 5.133 10.733 5.6 15.4.933 4.2 1.4 8.167 1.4 11.9.467 4.667 2.567 10.033 6.3 16.1 3.733 5.6 8.633 7.467 14.7 5.6v.7c0 2.8-2.1 5.133-6.3 7-2.8 1.4-6.067 2.1-9.8 2.1-7.933 0-16.8-2.8-26.6-8.4-9.8-5.6-17.033-11.667-21.7-18.2-5.133-7.467-7.7-14.933-7.7-22.4 0-4.2.933-7.933 2.8-11.2 1.867-3.733 3.733-6.533 5.6-8.4l.7-.7c-.467-6.067.467-12.133 2.8-18.2 2.333-6.067 4.9-11.433 7.7-16.1-29.867 23.8-57.633 51.1-83.3 81.9-25.667 30.8-46.9 62.067-63.7 93.8-16.8 31.267-27.3 60.433-31.5 87.5 14.933 7.933 32.2 11.9 51.8 11.9 8.4 0 17.033-.7 25.9-2.1 9.333-1.867 19.133-4.433 29.4-7.7 6.067-3.733 10.267-7.933 12.6-12.6 2.8-5.133 4.2-10.033 4.2-14.7 0-11.667-5.133-17.5-15.4-17.5h-.7c-1.867 0-3.033-.7-3.5-2.1-.467-1.4.233-2.8 2.1-4.2 2.333-1.4 5.367-2.1 9.1-2.1 2.8 0 4.9.233 6.3.7 4.2 1.4 7.467 4.433 9.8 9.1v-4.2c0-6.533 3.267-15.167 9.8-25.9 7-11.2 14.933-19.833 23.8-25.9 5.133-3.733 10.733-5.6 16.8-5.6s11.433 2.333 16.1 7c.933.933 1.4 1.867 1.4 2.8 0 .467-2.8 1.167-8.4 2.1-4.667.467-8.867 3.733-12.6 9.8-3.267 6.067-4.9 12.367-4.9 18.9 0 11.667-1.167 23.333-3.5 35-2.333 11.667-6.3 20.533-11.9 26.6-4.667 5.6-10.033 9.8-16.1 12.6-6.067 2.333-11.9 3.5-17.5 3.5-6.533 0-12.367-1.867-17.5-5.6-21.933 7.467-42.7 11.2-62.3 11.2-17.267 0-32.667-2.8-46.2-8.4-1.867 26.133 3.967 47.367 17.5 63.7 14 16.333 38.033 24.267 72.1 23.8Z"/></svg>