<svg xmlns="http://www.w3.org/2000/svg" width="620" height="240" fill="none"><path fill="#EAF2E2" d="M610.88 24.446c10.497 45.47 9.363 76.863-3.402 94.179-3.952 5.702-9.128 10.249-15.529 13.643-6.401 3.393-13.466 5.982-21.196 7.767-16.369 3.779-34.908 5.425-55.615 4.937a3862.988 3862.988 0 0 0-61.596-2.303c-20.813-.942-38.494.266-53.045 3.625-11.367 2.625-20.164 7.05-26.389 13.277-13.396 14.587-16.157 38.932-8.283 73.035l.315 1.364c.63 2.729-.874 4.513-4.512 5.352-2.274.525-4.984.193-8.133-.996-3.602-1.084-5.999-3.165-7.188-6.243-11.791-36.551-25.837-61.087-42.138-73.607-9.83-7.31-21.793-12.45-35.889-15.422-18.609-3.846-36.973-5.593-55.091-5.242l-54.671-.309c-18.678.001-37.549-1.868-56.613-5.609-21.092-4.23-38.215-12.011-51.367-23.343-21.619-18.956-37.677-51.17-48.174-96.64L1.576 8.5C.526 3.952.911 1.47 2.73 1.05c1.364-.315 3.55.857 6.559 3.515l3.673 3.462c3.674 15.915 9.429 29.434 17.265 40.556 7.382 11.227 15.147 19.97 23.298 26.231 8.92 7.52 20.603 12.485 35.05 14.898 20.182 4.44 40.452 7.184 60.81 8.231a983.6 983.6 0 0 1 58.659 5.136c19.098 1.818 37.252 5.768 54.462 11.853s33.161 16.052 47.853 29.902c14.237 13.955 26.726 33.821 37.467 59.599-.703-30.011 4.839-51.646 16.626-64.903 11.786-13.258 27.001-22.039 45.644-26.343 15.005-3.465 31.165-5.04 48.479-4.727 17.209-.141 34.244-.003 51.103.415 16.755-.037 31.953-1.629 45.594-4.779 6.366-1.469 12.347-3.569 17.943-6.297 5.596-2.73 10.528-6.263 14.795-10.6 5.316-6.017 9.425-14.15 12.327-24.399 3.357-10.354 3.199-23.488-.476-39.403-1.154-5.001-.822-7.712.996-8.132 1.819-.42 3.726.577 5.72 2.99l3.515 2.78.788 3.41Z"/></svg>