<svg xmlns="http://www.w3.org/2000/svg" width="24" height="24" fill="none"><path fill="#EAF2E2" d="m6 18-2.3 2.3c-.317.317-.68.387-1.088.212-.408-.175-.612-.487-.612-.937V4c0-.55.196-1.02.587-1.413A1.926 1.926 0 0 1 4 2h16c.55 0 1.02.196 1.413.587C21.803 2.98 22 3.45 22 4v12c0 .55-.196 1.02-.587 1.413A1.926 1.926 0 0 1 20 18H6Zm-.85-2H20V4H4v13.125L5.15 16ZM7 14h6c.283 0 .52-.096.713-.287A.968.968 0 0 0 14 13a.968.968 0 0 0-.287-.713A.968.968 0 0 0 13 12H7a.967.967 0 0 0-.713.287A.968.968 0 0 0 6 13c0 .283.096.52.287.713.192.191.43.287.713.287Zm0-3h10c.283 0 .52-.096.712-.287A.968.968 0 0 0 18 10a.967.967 0 0 0-.288-.713A.968.968 0 0 0 17 9H7a.968.968 0 0 0-.713.287A.968.968 0 0 0 6 10c0 .283.096.52.287.713.192.191.43.287.713.287Zm0-3h10c.283 0 .52-.096.712-.287A.967.967 0 0 0 18 7a.967.967 0 0 0-.288-.713A.968.968 0 0 0 17 6H7a.968.968 0 0 0-.713.287A.968.968 0 0 0 6 7c0 .283.096.52.287.713.192.191.43.287.713.287Z"/></svg>