<svg width="424" height="60" viewBox="0 0 424 60" fill="none" xmlns="http://www.w3.org/2000/svg">
<g clip-path="url(#clip0_35_49)">
<path d="M36.7188 43.5938C36.0156 44.2969 35.25 44.9219 34.4219 45.4688C33.5938 46.0156 32.75 46.5 31.8906 46.9219C31.0312 47.3281 30.1641 47.6797 29.2891 47.9766C28.4297 48.2578 27.6016 48.5 26.8047 48.7031C24.9297 49.1719 23.0469 49.4688 21.1562 49.5938C18.4844 49.5625 16.0703 49.1562 13.9141 48.375C11.7578 47.6094 9.92188 46.5234 8.40625 45.1172C6.89062 43.6953 5.72656 41.9766 4.91406 39.9609C4.10156 37.9297 3.69531 35.6484 3.69531 33.1172C3.69531 31.0391 4.07031 29.1094 4.82031 27.3281C5.58594 25.5469 6.60938 23.9297 7.89062 22.4766C9.17188 21.0078 10.6562 19.7188 12.3438 18.6094C14.0312 17.4844 15.8047 16.5391 17.6641 15.7734C19.5234 15.0078 21.4062 14.4297 23.3125 14.0391C25.2344 13.6328 27.0625 13.4297 28.7969 13.4297C29.3125 13.4297 29.8672 13.4453 30.4609 13.4766C31.0703 13.4922 31.6641 13.5312 32.2422 13.5938C32.8359 13.6563 33.3906 13.75 33.9062 13.875C34.4375 13.9844 34.875 14.1406 35.2188 14.3438C35.5781 14.5469 35.8281 14.7969 35.9688 15.0938C36.1094 15.375 36.0859 15.7188 35.8984 16.125C35.6641 16.2656 35.2812 16.5156 34.75 16.875C34.2812 17.1875 33.6172 17.6172 32.7578 18.1641C31.9141 18.7109 30.7812 19.4375 29.3594 20.3438C29.7656 20.0781 30.0625 19.8281 30.25 19.5938C30.4375 19.3594 30.5312 19.1328 30.5312 18.9141C30.5312 18.5703 30.375 18.2656 30.0625 18C29.7656 17.7344 29.3828 17.5078 28.9141 17.3203C28.4453 17.1328 27.9219 16.9844 27.3438 16.875C26.7656 16.75 26.2109 16.6562 25.6797 16.5938C25.1484 16.5156 24.6641 16.4688 24.2266 16.4531C23.7891 16.4219 23.4688 16.4062 23.2656 16.4062C18.7031 16.4062 15.2578 17.5703 12.9297 19.8984C10.6016 22.2266 9.4375 25.6719 9.4375 30.2344C9.4375 32.6406 9.82812 34.7891 10.6094 36.6797C11.3906 38.5703 12.4688 40.1953 13.8438 41.5547C15.2188 42.8984 16.8516 43.9688 18.7422 44.7656C20.6328 45.5625 22.6875 46.0625 24.9062 46.2656C26.1406 46.3438 27.4219 46.2969 28.75 46.125C29.8906 45.9844 31.1562 45.7266 32.5469 45.3516C33.9531 44.9766 35.3438 44.3906 36.7188 43.5938ZM72.5547 44.3906C71.8984 45.0469 71.1875 45.6484 70.4219 46.1953C69.6719 46.7266 68.9141 47.1875 68.1484 47.5781C67.3828 47.9688 66.6406 48.2812 65.9219 48.5156C65.2031 48.75 64.5469 48.8828 63.9531 48.9141C63.625 48.9453 63.2031 48.9375 62.6875 48.8906C62.1719 48.8594 61.6719 48.7266 61.1875 48.4922C60.7188 48.2578 60.3125 47.8906 59.9688 47.3906C59.625 46.8906 59.4531 46.1797 59.4531 45.2578V42.4688C58.5938 43.3125 57.6875 44.125 56.7344 44.9062C55.7812 45.6719 54.7969 46.3594 53.7812 46.9688C52.7812 47.5625 51.7656 48.0312 50.7344 48.375C49.7031 48.7344 48.6875 48.9141 47.6875 48.9141C46.4062 48.9141 45.2812 48.625 44.3125 48.0469C43.3438 47.4844 42.5312 46.75 41.875 45.8438C41.2188 44.9375 40.7266 43.9219 40.3984 42.7969C40.0703 41.6719 39.9062 40.5547 39.9062 39.4453C39.9062 38.6172 39.9688 37.8047 40.0938 37.0078C40.2188 36.1953 40.375 35.4297 40.5625 34.7109C40.7656 33.9922 40.9922 33.3438 41.2422 32.7656C41.5078 32.1875 41.7812 31.7109 42.0625 31.3359C42.5781 30.6328 43.2344 29.9531 44.0312 29.2969C44.8281 28.6406 45.6953 28.0234 46.6328 27.4453C47.5859 26.8672 48.5938 26.3438 49.6562 25.875C50.7188 25.4062 51.7734 25 52.8203 24.6562C53.8828 24.3125 54.9141 24.0469 55.9141 23.8594C56.9141 23.6719 57.8359 23.5781 58.6797 23.5781C59.5547 23.5781 60.5859 23.625 61.7734 23.7188C62.9609 23.7969 64.3125 23.9688 65.8281 24.2344C65.7656 26.0312 65.7109 27.6172 65.6641 28.9922C65.6172 30.3672 65.5781 31.6016 65.5469 32.6953C65.5156 33.7734 65.4922 34.7578 65.4766 35.6484C65.4609 36.5391 65.4531 37.4062 65.4531 38.25C65.4531 39.1094 65.4375 39.9531 65.4062 40.7812C65.375 41.6094 65.4375 42.3516 65.5938 43.0078C65.75 43.6641 66.0547 44.1953 66.5078 44.6016C66.9766 45.0078 67.6953 45.2109 68.6641 45.2109C69.2422 45.2109 69.8594 45.1406 70.5156 45C71.1719 44.8438 71.8516 44.6406 72.5547 44.3906ZM59.5 27.6094C58.5625 27.3594 57.5625 27.1875 56.5 27.0938C55.4375 26.9844 54.4219 26.9297 53.4531 26.9297C52.9219 26.9297 52.4141 26.9453 51.9297 26.9766C51.4609 27.0078 51.0312 27.0469 50.6406 27.0938C50.25 27.1406 49.9062 27.2031 49.6094 27.2812C49.3125 27.3438 49.0859 27.4219 48.9297 27.5156C48.6484 27.6562 48.3203 28 47.9453 28.5469C47.5703 29.0781 47.2109 29.7422 46.8672 30.5391C46.5234 31.3359 46.2266 32.2344 45.9766 33.2344C45.7422 34.2344 45.625 35.2656 45.625 36.3281C45.625 37.3438 45.7734 38.3672 46.0703 39.3984C46.3672 40.4141 46.7969 41.3281 47.3594 42.1406C47.9375 42.9531 48.6406 43.6172 49.4688 44.1328C50.3125 44.6328 51.2734 44.8828 52.3516 44.8828C53.3672 44.8828 54.2656 44.7188 55.0469 44.3906C55.8281 44.0625 56.5078 43.6172 57.0859 43.0547C57.6641 42.4766 58.1406 41.8047 58.5156 41.0391C58.9062 40.2734 59.2188 39.4453 59.4531 38.5547C59.4531 37.8984 59.4531 37.2031 59.4531 36.4688C59.4531 35.7188 59.4531 34.8984 59.4531 34.0078C59.4531 33.1172 59.4531 32.1484 59.4531 31.1016C59.4688 30.0391 59.4844 28.875 59.5 27.6094ZM82.8672 45.3984L77.2656 49.4297C77.4062 46.4141 77.5156 43.8438 77.5938 41.7188C77.6719 39.5938 77.7266 37.8438 77.7578 36.4688C77.8047 34.8594 77.8281 33.5312 77.8281 32.4844C77.9062 30.5938 77.6484 29.1172 77.0547 28.0547C76.4609 26.9766 75.5547 26.4375 74.3359 26.4375C73.9453 26.4375 73.5312 26.5 73.0938 26.625C72.6719 26.7344 72.2188 26.8984 71.7344 27.1172C72.3438 26.6797 72.9844 26.2344 73.6562 25.7812C74.3281 25.3125 75.0156 24.8906 75.7188 24.5156C76.4219 24.1406 77.125 23.8359 77.8281 23.6016C78.5469 23.3516 79.25 23.2266 79.9375 23.2266C80.5938 23.2266 81.1875 23.3594 81.7188 23.625C82.2656 23.8906 82.6797 24.3359 82.9609 24.9609C83.2109 25.4922 83.3828 26.0859 83.4766 26.7422C83.5859 27.3984 83.6562 28.1172 83.6875 28.8984C84.4844 28.0547 85.375 27.2656 86.3594 26.5312C87.3594 25.7969 88.3984 25.1719 89.4766 24.6562C90.5547 24.1406 91.6406 23.7578 92.7344 23.5078C93.8281 23.2578 94.8594 23.1953 95.8281 23.3203C96.5312 23.4141 97.2578 23.6094 98.0078 23.9062C98.7734 24.2031 99.4688 24.6562 100.094 25.2656C100.734 25.875 101.25 26.6797 101.641 27.6797C102.031 28.6641 102.211 29.8984 102.18 31.3828C102.133 33.1328 102.055 34.7422 101.945 36.2109C101.836 37.6641 101.781 38.9531 101.781 40.0781C101.781 40.75 101.836 41.3906 101.945 42C102.055 42.5938 102.242 43.1172 102.508 43.5703C102.789 44.0078 103.164 44.3594 103.633 44.625C104.102 44.8906 104.688 45.0234 105.391 45.0234C106.016 45.0234 106.672 44.9062 107.359 44.6719C108.062 44.4219 108.766 44.0469 109.469 43.5469C108.328 44.5625 107.281 45.4141 106.328 46.1016C105.391 46.7891 104.516 47.3438 103.703 47.7656C102.891 48.1875 102.133 48.4844 101.43 48.6562C100.727 48.8438 100.047 48.9297 99.3906 48.9141C98.7344 48.8984 98.1719 48.7656 97.7031 48.5156C97.2344 48.2812 96.8594 47.9141 96.5781 47.4141C96.2969 46.8984 96.1016 46.2422 95.9922 45.4453C95.8828 44.6328 95.8438 43.6406 95.875 42.4688C95.9219 41.4375 95.9844 40.3047 96.0625 39.0703C96.1406 37.8203 96.1797 36.5859 96.1797 35.3672C96.1797 33.9766 96.0859 32.7812 95.8984 31.7812C95.7109 30.7812 95.3672 29.9609 94.8672 29.3203C94.3828 28.6641 93.7031 28.1797 92.8281 27.8672C91.9688 27.5547 90.8594 27.3984 89.5 27.3984C88.5156 27.3984 87.6797 27.5938 86.9922 27.9844C86.3047 28.3594 85.7344 28.875 85.2812 29.5312C84.8281 30.1875 84.4688 30.9531 84.2031 31.8281C83.9531 32.6875 83.7578 33.6094 83.6172 34.5938C83.4922 35.5625 83.4062 36.5625 83.3594 37.5938C83.3125 38.6094 83.2734 39.5938 83.2422 40.5469C83.2266 41.5 83.1953 42.3984 83.1484 43.2422C83.1016 44.0703 83.0078 44.7891 82.8672 45.3984ZM133.07 42.6328C131.852 43.6172 130.648 44.5 129.461 45.2812C128.273 46.0625 127.117 46.7188 125.992 47.25C124.883 47.7812 123.812 48.1719 122.781 48.4219C121.766 48.6875 120.812 48.7891 119.922 48.7266C119.016 48.6641 118.18 48.4453 117.414 48.0703C116.664 47.6953 116.016 47.1328 115.469 46.3828C114.922 45.6328 114.5 44.6719 114.203 43.5C113.906 42.3281 113.781 40.9141 113.828 39.2578C113.844 38.3672 113.875 37.3125 113.922 36.0938C113.953 35.0469 113.984 33.75 114.016 32.2031C114.047 30.6562 114.078 28.8516 114.109 26.7891C113.781 26.8203 113.375 26.8594 112.891 26.9062C112.422 26.9531 111.906 27.0391 111.344 27.1641C110.797 27.2734 110.227 27.4297 109.633 27.6328C109.039 27.8203 108.453 28.0625 107.875 28.3594C108.344 28.0625 108.812 27.7578 109.281 27.4453C109.766 27.1328 110.203 26.8438 110.594 26.5781C111.047 26.2812 111.484 25.9844 111.906 25.6875C112.328 25.4688 112.703 25.0703 113.031 24.4922C113.312 23.9922 113.57 23.2812 113.805 22.3594C114.039 21.4375 114.156 20.1953 114.156 18.6328C115.25 18.0859 116.172 17.5859 116.922 17.1328C117.672 16.6797 118.281 16.2969 118.75 15.9844C119.297 15.6094 119.734 15.2891 120.062 15.0234L119.969 22.8984C120.375 22.9141 120.773 22.9297 121.164 22.9453C121.555 22.9453 121.898 22.9453 122.195 22.9453H123.18C124.523 22.9766 125.797 22.9609 127 22.8984C127.516 22.8828 128.039 22.8516 128.57 22.8047C129.117 22.7578 129.641 22.7031 130.141 22.6406C130.641 22.5625 131.102 22.4688 131.523 22.3594C131.961 22.25 132.328 22.125 132.625 21.9844C131.781 22.8281 130.852 23.5391 129.836 24.1172C128.836 24.6953 127.789 25.1719 126.695 25.5469C125.602 25.9062 124.477 26.1797 123.32 26.3672C122.18 26.5547 121.047 26.6797 119.922 26.7422C119.891 28.9766 119.867 31.1719 119.852 33.3281C119.836 35.4844 119.828 37.6094 119.828 39.7031C119.844 40.3906 120.016 41.0391 120.344 41.6484C120.672 42.2578 121.125 42.7891 121.703 43.2422C122.297 43.6953 122.992 44.0625 123.789 44.3438C124.586 44.6094 125.469 44.7422 126.438 44.7422C127.422 44.7422 128.477 44.5781 129.602 44.25C130.742 43.9219 131.898 43.3828 133.07 42.6328ZM143.734 4.21875C143.734 4.67187 143.742 5.10938 143.758 5.53125C143.773 5.9375 143.781 6.33594 143.781 6.72656C143.781 7.64844 143.703 8.4375 143.547 9.09375C143.391 9.75 143.023 10.2734 142.445 10.6641C142.102 10.9141 141.672 11.2031 141.156 11.5312C140.297 12.0938 138.914 12.9531 137.008 14.1094C137.195 13.6094 137.328 13.0078 137.406 12.3047C137.5 11.5859 137.562 10.9062 137.594 10.2656C137.625 9.51562 137.625 8.73438 137.594 7.92188C138.578 7.40625 139.445 6.92969 140.195 6.49219C140.945 6.03906 141.586 5.64063 142.117 5.29688C142.742 4.90625 143.281 4.54688 143.734 4.21875ZM151.984 44.1562C150.203 45.3281 148.688 46.25 147.438 46.9219C146.203 47.5938 145.141 48.0938 144.25 48.4219C143.359 48.75 142.609 48.9375 142 48.9844C141.391 49.0312 140.836 49.0078 140.336 48.9141C139.883 48.8359 139.438 48.7188 139 48.5625C138.562 48.4062 138.164 48.125 137.805 47.7188C137.461 47.2969 137.18 46.6953 136.961 45.9141C136.742 45.1328 136.633 44.0703 136.633 42.7266C136.633 41.6016 136.664 40.4922 136.727 39.3984C136.789 38.2891 136.852 37.1953 136.914 36.1172C136.992 35.0234 137.047 33.9453 137.078 32.8828C137.125 31.8047 137.133 30.7344 137.102 29.6719C137.07 28.6406 136.883 27.8906 136.539 27.4219C136.195 26.9375 135.68 26.6953 134.992 26.6953C134.727 26.6953 134.438 26.7266 134.125 26.7891C133.812 26.8516 133.477 26.9453 133.117 27.0703C133.68 26.6797 134.258 26.2891 134.852 25.8984C135.445 25.4922 136.047 25.1328 136.656 24.8203C137.266 24.5078 137.875 24.2578 138.484 24.0703C139.109 23.8672 139.727 23.7656 140.336 23.7656C140.992 23.7656 141.562 23.9141 142.047 24.2109C142.547 24.5078 142.867 25 143.008 25.6875C143.055 25.9531 143.086 26.3438 143.102 26.8594C143.133 27.375 143.148 27.9766 143.148 28.6641C143.148 29.6797 143.125 30.8047 143.078 32.0391C143.047 33.2734 143.008 34.4922 142.961 35.6953C142.914 36.8828 142.867 37.9844 142.82 39C142.773 40 142.742 40.7734 142.727 41.3203C142.711 41.8359 142.805 42.3516 143.008 42.8672C143.211 43.3828 143.508 43.8516 143.898 44.2734C144.305 44.6797 144.797 45.0156 145.375 45.2812C145.969 45.5312 146.641 45.6562 147.391 45.6562C148.047 45.6562 148.758 45.5391 149.523 45.3047C150.289 45.0703 151.109 44.6875 151.984 44.1562ZM160.82 45.3984L155.219 49.4297C155.359 46.4141 155.469 43.8438 155.547 41.7188C155.625 39.5938 155.68 37.8438 155.711 36.4688C155.758 34.8594 155.781 33.5312 155.781 32.4844C155.859 30.5938 155.602 29.1172 155.008 28.0547C154.414 26.9766 153.508 26.4375 152.289 26.4375C151.898 26.4375 151.484 26.5 151.047 26.625C150.625 26.7344 150.172 26.8984 149.688 27.1172C150.297 26.6797 150.938 26.2344 151.609 25.7812C152.281 25.3125 152.969 24.8906 153.672 24.5156C154.375 24.1406 155.078 23.8359 155.781 23.6016C156.5 23.3516 157.203 23.2266 157.891 23.2266C158.547 23.2266 159.141 23.3594 159.672 23.625C160.219 23.8906 160.633 24.3359 160.914 24.9609C161.164 25.4922 161.336 26.0859 161.43 26.7422C161.539 27.3984 161.609 28.1172 161.641 28.8984C162.438 28.0547 163.328 27.2656 164.312 26.5312C165.312 25.7969 166.352 25.1719 167.43 24.6562C168.508 24.1406 169.594 23.7578 170.688 23.5078C171.781 23.2578 172.812 23.1953 173.781 23.3203C174.484 23.4141 175.211 23.6094 175.961 23.9062C176.727 24.2031 177.422 24.6562 178.047 25.2656C178.688 25.875 179.203 26.6797 179.594 27.6797C179.984 28.6641 180.164 29.8984 180.133 31.3828C180.086 33.1328 180.008 34.7422 179.898 36.2109C179.789 37.6641 179.734 38.9531 179.734 40.0781C179.734 40.75 179.789 41.3906 179.898 42C180.008 42.5938 180.195 43.1172 180.461 43.5703C180.742 44.0078 181.117 44.3594 181.586 44.625C182.055 44.8906 182.641 45.0234 183.344 45.0234C183.969 45.0234 184.625 44.9062 185.312 44.6719C186.016 44.4219 186.719 44.0469 187.422 43.5469C186.281 44.5625 185.234 45.4141 184.281 46.1016C183.344 46.7891 182.469 47.3438 181.656 47.7656C180.844 48.1875 180.086 48.4844 179.383 48.6562C178.68 48.8438 178 48.9297 177.344 48.9141C176.688 48.8984 176.125 48.7656 175.656 48.5156C175.188 48.2812 174.812 47.9141 174.531 47.4141C174.25 46.8984 174.055 46.2422 173.945 45.4453C173.836 44.6328 173.797 43.6406 173.828 42.4688C173.875 41.4375 173.938 40.3047 174.016 39.0703C174.094 37.8203 174.133 36.5859 174.133 35.3672C174.133 33.9766 174.039 32.7812 173.852 31.7812C173.664 30.7812 173.32 29.9609 172.82 29.3203C172.336 28.6641 171.656 28.1797 170.781 27.8672C169.922 27.5547 168.812 27.3984 167.453 27.3984C166.469 27.3984 165.633 27.5938 164.945 27.9844C164.258 28.3594 163.688 28.875 163.234 29.5312C162.781 30.1875 162.422 30.9531 162.156 31.8281C161.906 32.6875 161.711 33.6094 161.57 34.5938C161.445 35.5625 161.359 36.5625 161.312 37.5938C161.266 38.6094 161.227 39.5938 161.195 40.5469C161.18 41.5 161.148 42.3984 161.102 43.2422C161.055 44.0703 160.961 44.7891 160.82 45.3984ZM195.906 45.3984L190.281 49.4297C190.344 45.3672 190.406 41.7188 190.469 38.4844C190.531 35.25 190.578 32.375 190.609 29.8594C190.656 27.3281 190.695 25.1328 190.727 23.2734C190.758 21.4141 190.781 19.8203 190.797 18.4922C190.844 15.3828 190.867 13.2031 190.867 11.9531C190.914 10.0469 190.641 8.5625 190.047 7.5C189.469 6.4375 188.57 5.90625 187.352 5.90625C186.961 5.90625 186.555 5.96094 186.133 6.07031C185.711 6.16406 185.258 6.33594 184.773 6.58594C185.383 6.14844 186.023 5.70312 186.695 5.25C187.367 4.78125 188.047 4.35938 188.734 3.98438C189.438 3.60938 190.141 3.30469 190.844 3.07031C191.562 2.82031 192.273 2.69531 192.977 2.69531C193.602 2.69531 194.133 2.8125 194.57 3.04688C195.008 3.28125 195.367 3.59375 195.648 3.98438C195.945 4.35938 196.172 4.79688 196.328 5.29688C196.484 5.78125 196.594 6.28906 196.656 6.82031C196.734 7.35156 196.781 7.88281 196.797 8.41406C196.812 8.94531 196.82 9.4375 196.82 9.89062C196.82 10.125 196.812 10.5547 196.797 11.1797C196.797 11.7891 196.789 12.5547 196.773 13.4766C196.758 14.3984 196.734 15.4531 196.703 16.6406C196.688 17.8281 196.664 19.1016 196.633 20.4609C196.602 21.8203 196.57 23.25 196.539 24.75C196.508 26.2344 196.469 27.7422 196.422 29.2734C197.188 28.3828 198.078 27.5547 199.094 26.7891C200.109 26.0078 201.172 25.3438 202.281 24.7969C203.391 24.2344 204.508 23.8203 205.633 23.5547C206.773 23.2734 207.852 23.1953 208.867 23.3203C209.555 23.4141 210.273 23.6094 211.023 23.9062C211.789 24.2031 212.484 24.6562 213.109 25.2656C213.75 25.875 214.266 26.6797 214.656 27.6797C215.047 28.6641 215.227 29.8984 215.195 31.3828C215.148 33.1328 215.07 34.7422 214.961 36.2109C214.867 37.6641 214.82 38.9531 214.82 40.0781C214.82 40.75 214.875 41.3906 214.984 42C215.094 42.5938 215.281 43.1172 215.547 43.5703C215.812 44.0078 216.18 44.3594 216.648 44.625C217.117 44.8906 217.703 45.0234 218.406 45.0234C219.047 45.0234 219.711 44.9062 220.398 44.6719C221.086 44.4219 221.781 44.0469 222.484 43.5469C221.344 44.5625 220.297 45.4141 219.344 46.1016C218.406 46.7891 217.531 47.3438 216.719 47.7656C215.922 48.1875 215.164 48.4844 214.445 48.6562C213.742 48.8438 213.062 48.9297 212.406 48.9141C211.75 48.8984 211.188 48.7656 210.719 48.5156C210.266 48.2812 209.898 47.9141 209.617 47.4141C209.336 46.8984 209.141 46.2422 209.031 45.4453C208.922 44.6328 208.883 43.6406 208.914 42.4688C208.961 41.4375 209.016 40.3047 209.078 39.0703C209.156 37.8203 209.195 36.5859 209.195 35.3672C209.195 33.9766 209.102 32.7812 208.914 31.7812C208.742 30.7812 208.406 29.9609 207.906 29.3203C207.422 28.6641 206.742 28.1797 205.867 27.8672C205.008 27.5547 203.891 27.3984 202.516 27.3984C201.812 27.3984 201.164 27.4609 200.57 27.5859C199.977 27.7109 199.508 27.8906 199.164 28.125C198.883 28.3281 198.578 28.7969 198.25 29.5312C197.922 30.25 197.602 31.3047 197.289 32.6953C196.977 34.0703 196.695 35.8047 196.445 37.8984C196.195 39.9766 196.016 42.4766 195.906 45.3984ZM252.414 34.3594C252.414 35.6562 252.234 36.8359 251.875 37.8984C251.516 38.9609 251.086 39.8906 250.586 40.6875C250.086 41.4844 249.578 42.1484 249.062 42.6797C248.547 43.2109 248.133 43.5938 247.82 43.8281C246.914 44.4844 245.984 45.125 245.031 45.75C244.078 46.375 243.094 46.9375 242.078 47.4375C241.078 47.9219 240.047 48.3125 238.984 48.6094C237.922 48.9062 236.828 49.0547 235.703 49.0547C234.031 49.0547 232.445 48.8438 230.945 48.4219C229.461 48 228.156 47.3672 227.031 46.5234C225.922 45.6797 225.039 44.6172 224.383 43.3359C223.742 42.0547 223.422 40.5547 223.422 38.8359C223.422 37.3203 223.68 35.8984 224.195 34.5703C224.727 33.2266 225.43 31.9922 226.305 30.8672C227.195 29.7422 228.234 28.7344 229.422 27.8438C230.609 26.9375 231.867 26.1719 233.195 25.5469C234.523 24.9219 235.891 24.4453 237.297 24.1172C238.703 23.7891 240.062 23.625 241.375 23.625C243 23.625 244.484 23.8984 245.828 24.4453C247.188 24.9766 248.352 25.7266 249.32 26.6953C250.305 27.6484 251.062 28.7812 251.594 30.0938C252.141 31.4062 252.414 32.8281 252.414 34.3594ZM236.242 26.3438C235.445 26.3438 234.719 26.4922 234.062 26.7891C233.406 27.0703 232.82 27.4609 232.305 27.9609C231.805 28.4453 231.367 29.0156 230.992 29.6719C230.633 30.3125 230.328 30.9922 230.078 31.7109C229.844 32.4141 229.664 33.1328 229.539 33.8672C229.43 34.5859 229.375 35.2656 229.375 35.9062C229.375 37.3594 229.641 38.7188 230.172 39.9844C230.703 41.2344 231.43 42.3281 232.352 43.2656C233.289 44.2031 234.375 44.9375 235.609 45.4688C236.859 46 238.188 46.2656 239.594 46.2656C240.469 46.2656 241.312 46.1016 242.125 45.7734C242.953 45.4297 243.68 44.8984 244.305 44.1797C244.945 43.4453 245.453 42.5078 245.828 41.3672C246.219 40.2109 246.414 38.8203 246.414 37.1953C246.414 35.7734 246.148 34.4062 245.617 33.0938C245.086 31.7812 244.359 30.625 243.438 29.625C242.516 28.625 241.438 27.8281 240.203 27.2344C238.969 26.6406 237.648 26.3438 236.242 26.3438ZM303.039 14.3906C303.18 14.8906 303.227 15.5234 303.18 16.2891C303.133 17.0547 303 17.9062 302.781 18.8438C302.562 19.7812 302.258 20.7812 301.867 21.8438C301.477 22.9062 301 23.9844 300.438 25.0781C299.891 26.1719 299.266 27.2578 298.562 28.3359C297.859 29.4141 297.078 30.4453 296.219 31.4297C294.859 33.0234 293.664 34.4844 292.633 35.8125C291.602 37.1406 290.711 38.3594 289.961 39.4688C289.227 40.5781 288.625 41.5859 288.156 42.4922C287.688 43.3984 287.336 44.2266 287.102 44.9766C286.711 45.2891 286.266 45.6641 285.766 46.1016C285.344 46.4766 284.844 46.9375 284.266 47.4844C283.688 48.0312 283.062 48.6641 282.391 49.3828C282.031 46.8359 281.555 44.2422 280.961 41.6016C280.383 38.9609 279.711 36.375 278.945 33.8438C278.195 31.3125 277.375 28.8906 276.484 26.5781C275.609 24.25 274.703 22.125 273.766 20.2031C273.188 19.0312 272.586 18.2266 271.961 17.7891C271.336 17.3516 270.688 17.1328 270.016 17.1328C269.406 17.1328 268.75 17.2656 268.047 17.5312C268.531 17.1406 269.062 16.6875 269.641 16.1719C270.234 15.6562 270.852 15.1641 271.492 14.6953C272.133 14.2266 272.773 13.8281 273.414 13.5C274.07 13.1719 274.695 13.0078 275.289 13.0078C275.883 13.0078 276.469 13.1641 277.047 13.4766C277.625 13.7891 278.094 14.3047 278.453 15.0234C278.625 15.3828 278.914 16.0234 279.32 16.9453C279.742 17.8516 280.219 18.9688 280.75 20.2969C281.281 21.6094 281.852 23.0859 282.461 24.7266C283.07 26.3672 283.664 28.0938 284.242 29.9062C284.82 31.7188 285.359 33.5781 285.859 35.4844C286.359 37.375 286.758 39.2422 287.055 41.0859C287.711 40.1016 288.32 39.2031 288.883 38.3906C289.461 37.5625 289.961 36.8516 290.383 36.2578C290.883 35.5547 291.328 34.9219 291.719 34.3594C292.625 33.0156 293.445 31.6875 294.18 30.375C294.914 29.0625 295.539 27.7969 296.055 26.5781C296.57 25.3594 296.969 24.2031 297.25 23.1094C297.531 22 297.672 20.9844 297.672 20.0625C297.672 19.6875 297.641 19.3047 297.578 18.9141C297.531 18.5234 297.43 18.1641 297.273 17.8359C297.117 17.5078 296.906 17.2422 296.641 17.0391C296.391 16.8203 296.062 16.7109 295.656 16.7109C295.359 16.7109 295.016 16.7812 294.625 16.9219C294.25 17.0625 293.82 17.3281 293.336 17.7188C293.914 17.1562 294.5 16.5859 295.094 16.0078C295.703 15.4141 296.32 14.8828 296.945 14.4141C297.57 13.9453 298.211 13.5625 298.867 13.2656C299.539 12.9687 300.227 12.8203 300.93 12.8203C301.43 12.8203 301.867 12.9375 302.242 13.1719C302.633 13.4062 302.898 13.8125 303.039 14.3906ZM335.242 25.6406C333.445 26.5156 331.773 27.2969 330.227 27.9844C328.695 28.6562 327.344 29.2266 326.172 29.6953C324.812 30.2422 323.562 30.7266 322.422 31.1484C321.719 31.4453 320.938 31.75 320.078 32.0625C319.234 32.3594 318.352 32.6562 317.43 32.9531C316.508 33.2344 315.562 33.5234 314.594 33.8203C313.641 34.1016 312.695 34.3828 311.758 34.6641V35.1328C311.758 36.7422 312.008 38.1875 312.508 39.4688C313.023 40.75 313.734 41.8438 314.641 42.75C315.547 43.6406 316.633 44.3281 317.898 44.8125C319.164 45.2812 320.562 45.5156 322.094 45.5156C322.891 45.5156 323.68 45.4531 324.461 45.3281C325.258 45.2031 326.008 45.0391 326.711 44.8359C327.43 44.6172 328.102 44.3594 328.727 44.0625C329.352 43.7656 329.906 43.4453 330.391 43.1016C329.203 44.1641 327.977 45.0547 326.711 45.7734C325.461 46.4922 324.203 47.0781 322.938 47.5312C321.688 47.9688 320.445 48.2891 319.211 48.4922C317.992 48.6953 316.82 48.8047 315.695 48.8203C314.555 48.8516 313.43 48.6719 312.32 48.2812C311.227 47.9062 310.227 47.3281 309.32 46.5469C308.414 45.7656 307.648 44.7969 307.023 43.6406C306.398 42.4688 305.992 41.1094 305.805 39.5625C305.727 39.0156 305.688 38.4922 305.688 37.9922C305.703 37.4766 305.758 36.9688 305.852 36.4688C305.305 36.6719 304.805 36.8594 304.352 37.0312C303.914 37.2031 303.555 37.375 303.273 37.5469C303.727 37.2344 304.18 36.9453 304.633 36.6797C305.086 36.3984 305.531 36.1406 305.969 35.9062C306.234 34.6875 306.688 33.5234 307.328 32.4141C307.984 31.3047 308.766 30.2734 309.672 29.3203C310.594 28.3672 311.617 27.5078 312.742 26.7422C313.867 25.9609 315.031 25.2969 316.234 24.75C317.453 24.2031 318.688 23.7812 319.938 23.4844C321.188 23.1875 322.398 23.0391 323.57 23.0391C324.352 23.0391 325.008 23.1562 325.539 23.3906C326.086 23.625 326.453 24.0391 326.641 24.6328C326.734 25.2578 326.508 25.9297 325.961 26.6484C325.727 26.9609 325.406 27.2969 325 27.6562C324.609 28 324.094 28.3672 323.453 28.7578C322.828 29.1484 322.07 29.5547 321.18 29.9766C320.305 30.3984 319.266 30.8203 318.062 31.2422L335.242 25.6406ZM316.656 31.3359C317.328 31.0391 317.93 30.7188 318.461 30.375C319.008 30.0312 319.43 29.6719 319.727 29.2969C320.039 28.9219 320.203 28.5312 320.219 28.125C320.234 27.7188 320.07 27.2891 319.727 26.8359C319.492 26.4922 319.164 26.2578 318.742 26.1328C318.336 25.9922 317.914 25.9219 317.477 25.9219C317.07 25.9219 316.68 25.9688 316.305 26.0625C315.93 26.1406 315.602 26.25 315.32 26.3906C315.133 26.5 314.875 26.7422 314.547 27.1172C314.219 27.4766 313.883 27.9531 313.539 28.5469C313.195 29.125 312.867 29.8047 312.555 30.5859C312.258 31.3516 312.039 32.1953 311.898 33.1172C312.883 32.7578 313.773 32.4375 314.57 32.1562C315.367 31.875 316.062 31.6016 316.656 31.3359ZM342.484 29.0391C343.219 28.3359 344.016 27.6328 344.875 26.9297C345.75 26.2266 346.633 25.5938 347.523 25.0312C348.43 24.4531 349.336 23.9844 350.242 23.625C351.148 23.2656 352 23.0859 352.797 23.0859C353.344 23.0859 353.875 23.1484 354.391 23.2734C354.922 23.3828 355.438 23.5156 355.938 23.6719C356.453 23.8125 356.961 23.9453 357.461 24.0703C357.961 24.1797 358.469 24.2344 358.984 24.2344C359.297 24.2344 359.625 24.2109 359.969 24.1641C360.312 24.1172 360.703 24.0312 361.141 23.9062C360.156 24.6562 359.297 25.3047 358.562 25.8516C357.828 26.3984 357.141 26.8516 356.5 27.2109C355.859 27.5547 355.219 27.8125 354.578 27.9844C353.953 28.1406 353.25 28.2031 352.469 28.1719C351.703 28.1562 350.977 28.0781 350.289 27.9375C349.617 27.7969 349 27.6562 348.438 27.5156C347.891 27.3594 347.406 27.25 346.984 27.1875C346.578 27.1094 346.258 27.1328 346.023 27.2578C345.461 27.5391 344.969 28.0547 344.547 28.8047C344.125 29.5547 343.766 30.4453 343.469 31.4766C343.188 32.5078 342.953 33.625 342.766 34.8281C342.594 36.0312 342.461 37.2344 342.367 38.4375C342.289 39.6406 342.25 40.7891 342.25 41.8828C342.25 42.9609 342.281 43.8984 342.344 44.6953C341.172 45.4453 340.203 46.0938 339.438 46.6406C338.672 47.1875 338.062 47.6406 337.609 48C337.078 48.4219 336.672 48.7891 336.391 49.1016C336.406 48.1641 336.43 47.0312 336.461 45.7031C336.492 44.3594 336.516 42.9531 336.531 41.4844C336.562 40.0156 336.586 38.5625 336.602 37.125C336.617 35.6719 336.625 34.3672 336.625 33.2109C336.625 32.4766 336.602 31.7344 336.555 30.9844C336.523 30.2188 336.398 29.5234 336.18 28.8984C335.961 28.2734 335.617 27.7656 335.148 27.375C334.695 26.9844 334.047 26.7891 333.203 26.7891C332.875 26.7891 332.531 26.8281 332.172 26.9062C331.828 26.9688 331.484 27.0859 331.141 27.2578C331.797 26.8203 332.453 26.375 333.109 25.9219C333.766 25.4688 334.422 25.0625 335.078 24.7031C335.75 24.3281 336.414 24.0312 337.07 23.8125C337.742 23.5781 338.422 23.4609 339.109 23.4609C339.938 23.4609 340.578 23.6406 341.031 24C341.5 24.3594 341.836 24.8125 342.039 25.3594C342.258 25.9062 342.383 26.5078 342.414 27.1641C342.461 27.8203 342.484 28.4453 342.484 29.0391ZM393.789 44.7422C391.68 46.1797 389.883 47.2109 388.398 47.8359C386.914 48.4609 385.656 48.7734 384.625 48.7734C384.203 48.7734 383.766 48.7031 383.312 48.5625C382.875 48.4375 382.453 48.2188 382.047 47.9062C381.641 47.5781 381.266 47.1484 380.922 46.6172C380.594 46.0703 380.336 45.3828 380.148 44.5547C379.383 45.1172 378.531 45.6719 377.594 46.2188C376.672 46.7656 375.719 47.2578 374.734 47.6953C373.75 48.1328 372.758 48.4844 371.758 48.75C370.773 49.0156 369.828 49.1484 368.922 49.1484C367.391 49.1484 366.016 48.8359 364.797 48.2109C363.578 47.6016 362.539 46.7891 361.68 45.7734C360.836 44.7578 360.18 43.6016 359.711 42.3047C359.258 41.0078 359.031 39.6719 359.031 38.2969C359.031 36.7656 359.266 35.3984 359.734 34.1953C360.219 32.9766 360.867 31.8984 361.68 30.9609C362.508 30.0078 363.461 29.1719 364.539 28.4531C365.617 27.7188 366.766 27.0781 367.984 26.5312C369.203 25.9844 370.453 25.5078 371.734 25.1016C373.016 24.6797 374.258 24.2969 375.461 23.9531C375.57 23.9375 375.703 23.9219 375.859 23.9062C375.984 23.8906 376.133 23.8828 376.305 23.8828C376.492 23.8672 376.703 23.8594 376.938 23.8594C377.375 23.8594 377.867 23.8906 378.414 23.9531C378.977 24 379.57 24.0938 380.195 24.2344L380.688 9.44531C380.656 8.58594 380.5 7.85156 380.219 7.24219C380.094 6.99219 379.938 6.75781 379.75 6.53906C379.562 6.30469 379.328 6.125 379.047 6C378.781 5.875 378.453 5.80469 378.062 5.78906C377.688 5.77344 377.25 5.84375 376.75 6C377.359 5.71875 378.008 5.40625 378.695 5.0625C379.383 4.70313 380.062 4.375 380.734 4.07812C381.422 3.76563 382.086 3.50781 382.727 3.30469C383.383 3.08594 383.984 2.97656 384.531 2.97656C385.125 2.97656 385.617 3.13281 386.008 3.44531C386.414 3.75781 386.641 4.24219 386.688 4.89844C386.734 5.33594 386.758 5.9375 386.758 6.70312C386.773 7.46875 386.781 8.38281 386.781 9.44531C386.781 10.7109 386.766 12.125 386.734 13.6875C386.719 15.2344 386.695 16.8516 386.664 18.5391C386.633 20.2266 386.594 21.9453 386.547 23.6953C386.5 25.4453 386.461 27.1562 386.43 28.8281C386.398 30.5 386.367 32.0938 386.336 33.6094C386.32 35.1094 386.312 36.4531 386.312 37.6406C386.312 38.5781 386.367 39.5 386.477 40.4062C386.602 41.3125 386.836 42.125 387.18 42.8438C387.539 43.5625 388.031 44.1484 388.656 44.6016C389.297 45.0391 390.141 45.2578 391.188 45.2578C391.578 45.2578 391.984 45.2188 392.406 45.1406C392.844 45.0625 393.305 44.9297 393.789 44.7422ZM380.055 29.3672C379.508 28.8984 378.922 28.5078 378.297 28.1953C377.672 27.8828 377.023 27.6328 376.352 27.4453C375.695 27.2422 375.031 27.1016 374.359 27.0234C373.703 26.9297 373.062 26.8828 372.438 26.8828C371.078 26.8828 369.914 27.0859 368.945 27.4922C367.992 27.8984 367.211 28.4766 366.602 29.2266C365.992 29.9766 365.547 30.875 365.266 31.9219C364.984 32.9688 364.844 34.1328 364.844 35.4141C364.844 36.7891 365.055 38.0938 365.477 39.3281C365.914 40.5469 366.523 41.625 367.305 42.5625C368.086 43.4844 369.031 44.2188 370.141 44.7656C371.266 45.2969 372.508 45.5625 373.867 45.5625C374.836 45.5625 375.664 45.4453 376.352 45.2109C377.039 44.9609 377.609 44.625 378.062 44.2031C378.531 43.7656 378.906 43.2422 379.188 42.6328C379.469 42.0234 379.695 41.3516 379.867 40.6172C379.867 40.0078 379.867 39.2969 379.867 38.4844C379.883 37.6562 379.898 36.7656 379.914 35.8125C379.945 34.8438 379.969 33.8203 379.984 32.7422C380 31.6484 380.023 30.5234 380.055 29.3672ZM425.945 25.6406C424.148 26.5156 422.477 27.2969 420.93 27.9844C419.398 28.6562 418.047 29.2266 416.875 29.6953C415.516 30.2422 414.266 30.7266 413.125 31.1484C412.422 31.4453 411.641 31.75 410.781 32.0625C409.938 32.3594 409.055 32.6562 408.133 32.9531C407.211 33.2344 406.266 33.5234 405.297 33.8203C404.344 34.1016 403.398 34.3828 402.461 34.6641V35.1328C402.461 36.7422 402.711 38.1875 403.211 39.4688C403.727 40.75 404.438 41.8438 405.344 42.75C406.25 43.6406 407.336 44.3281 408.602 44.8125C409.867 45.2812 411.266 45.5156 412.797 45.5156C413.594 45.5156 414.383 45.4531 415.164 45.3281C415.961 45.2031 416.711 45.0391 417.414 44.8359C418.133 44.6172 418.805 44.3594 419.43 44.0625C420.055 43.7656 420.609 43.4453 421.094 43.1016C419.906 44.1641 418.68 45.0547 417.414 45.7734C416.164 46.4922 414.906 47.0781 413.641 47.5312C412.391 47.9688 411.148 48.2891 409.914 48.4922C408.695 48.6953 407.523 48.8047 406.398 48.8203C405.258 48.8516 404.133 48.6719 403.023 48.2812C401.93 47.9062 400.93 47.3281 400.023 46.5469C399.117 45.7656 398.352 44.7969 397.727 43.6406C397.102 42.4688 396.695 41.1094 396.508 39.5625C396.43 39.0156 396.391 38.4922 396.391 37.9922C396.406 37.4766 396.461 36.9688 396.555 36.4688C396.008 36.6719 395.508 36.8594 395.055 37.0312C394.617 37.2031 394.258 37.375 393.977 37.5469C394.43 37.2344 394.883 36.9453 395.336 36.6797C395.789 36.3984 396.234 36.1406 396.672 35.9062C396.938 34.6875 397.391 33.5234 398.031 32.4141C398.688 31.3047 399.469 30.2734 400.375 29.3203C401.297 28.3672 402.32 27.5078 403.445 26.7422C404.57 25.9609 405.734 25.2969 406.938 24.75C408.156 24.2031 409.391 23.7812 410.641 23.4844C411.891 23.1875 413.102 23.0391 414.273 23.0391C415.055 23.0391 415.711 23.1562 416.242 23.3906C416.789 23.625 417.156 24.0391 417.344 24.6328C417.438 25.2578 417.211 25.9297 416.664 26.6484C416.43 26.9609 416.109 27.2969 415.703 27.6562C415.312 28 414.797 28.3672 414.156 28.7578C413.531 29.1484 412.773 29.5547 411.883 29.9766C411.008 30.3984 409.969 30.8203 408.766 31.2422L425.945 25.6406ZM407.359 31.3359C408.031 31.0391 408.633 30.7188 409.164 30.375C409.711 30.0312 410.133 29.6719 410.43 29.2969C410.742 28.9219 410.906 28.5312 410.922 28.125C410.938 27.7188 410.773 27.2891 410.43 26.8359C410.195 26.4922 409.867 26.2578 409.445 26.1328C409.039 25.9922 408.617 25.9219 408.18 25.9219C407.773 25.9219 407.383 25.9688 407.008 26.0625C406.633 26.1406 406.305 26.25 406.023 26.3906C405.836 26.5 405.578 26.7422 405.25 27.1172C404.922 27.4766 404.586 27.9531 404.242 28.5469C403.898 29.125 403.57 29.8047 403.258 30.5859C402.961 31.3516 402.742 32.1953 402.602 33.1172C403.586 32.7578 404.477 32.4375 405.273 32.1562C406.07 31.875 406.766 31.6016 407.359 31.3359Z" fill="#20360D"/>
</g>
<defs>
<clipPath id="clip0_35_49">
<rect width="424" height="60" fill="white"/>
</clipPath>
</defs>
</svg>
